<?xml version="1.0" standalone="no"?>
<!DOCTYPE svg PUBLIC "-//W3C//DTD SVG 1.1//EN" "http://www.w3.org/Graphics/SVG/1.1/DTD/svg11.dtd" >
<svg xmlns="http://www.w3.org/2000/svg">
<metadata>Generated by IcoMoon</metadata>
<defs>
<font id="icomoon" horiz-adv-x="1024">
<font-face units-per-em="1024" ascent="960" descent="-64" />
<missing-glyph horiz-adv-x="1024" />
<glyph unicode="&#x20;" horiz-adv-x="512" d="" />
<glyph unicode="&#xe900;" glyph-name="agrobusiness" d="M533.333 204.607c11.019 17.332 23.82 33.436 38.147 48.057-12.885 1.29-25.621 3.414-38.147 6.355-12.526-2.941-25.262-5.065-38.147-6.355 14.327-14.621 27.128-30.725 38.147-48.057zM533.333-56.158c-22.124-5.194-44.904-7.842-68-7.842-162.74 0-294.667 131.030-294.667 292.665 0 24.174 2.961 47.999 8.762 71.081 4.058 16.144 16.749 28.749 33.004 32.779 13.673 3.39 27.605 5.803 41.715 7.216-51.661 52.722-83.481 124.721-83.481 204.101 0 24.174 2.961 47.999 8.762 71.081 4.058 16.144 16.749 28.749 33.004 32.779 23.24 5.762 47.228 8.703 71.567 8.703 46.706 0 90.874-10.793 130.113-30.004-10.958 30.819-16.78 63.715-16.78 97.542 0 88.443 39.8 170.52 107.128 225.748 16.753 13.742 40.967 13.746 57.725 0.009 63.237-51.839 102.366-127.486 106.744-210.44 2.063-39.096-3.733-77.324-16.378-112.86 39.24 19.212 83.409 30.005 130.115 30.005 24.339 0 48.328-2.941 71.567-8.703 16.254-4.030 28.946-16.635 33.004-32.779 5.802-23.082 8.762-46.907 8.762-71.081 0-79.38-31.819-151.379-83.481-204.101 14.11-1.413 28.042-3.826 41.715-7.216 16.254-4.030 28.946-16.635 33.004-32.779 5.802-23.082 8.762-46.907 8.762-71.081 0-161.634-131.927-292.665-294.667-292.665-23.096 0-45.876 2.648-68 7.842zM601.333 341.228c112.666 0 204 90.713 204 202.614 0 7.195-0.376 14.335-1.121 21.4-7.113 0.74-14.302 1.113-21.546 1.113-112.666 0-204-90.713-204-202.614 0-7.195 0.376-14.335 1.121-21.4 7.113-0.74 14.302-1.113 21.546-1.113zM578.387 734.547c-2.297 43.532-18.354 84.067-45.049 116.789-28.949-35.495-45.338-80.085-45.338-127.393 0-47.304 16.386-91.891 45.331-127.384 31.198 38.275 47.745 87.025 45.056 137.988zM601.333 26.051c112.666 0 204 90.713 204 202.614 0 7.195-0.376 14.335-1.121 21.4-7.113 0.74-14.302 1.113-21.546 1.113-112.666 0-204-90.713-204-202.614 0-7.195 0.376-14.335 1.121-21.4 7.113-0.74 14.302-1.113 21.546-1.113zM488 363.741c0 111.901-91.334 202.614-204 202.614-7.245 0-14.433-0.373-21.546-1.113-0.745-7.065-1.121-14.204-1.121-21.4 0-111.901 91.334-202.614 204-202.614 7.245 0 14.433 0.373 21.546 1.113 0.745 7.065 1.121 14.204 1.121 21.4zM488 48.563c0 111.901-91.334 202.614-204 202.614-7.245 0-14.433-0.373-21.546-1.113-0.745-7.065-1.121-14.204-1.121-21.4 0-111.901 91.334-202.614 204-202.614 7.245 0 14.433 0.373 21.546 1.113 0.745 7.065 1.121 14.204 1.121 21.4z" />
<glyph unicode="&#xe901;" glyph-name="align-center" d="M213.333 661.333h597.333c23.564 0 42.667 19.103 42.667 42.667s-19.103 42.667-42.667 42.667h-597.333c-23.564 0-42.667-19.103-42.667-42.667s19.103-42.667 42.667-42.667zM384 490.667h256c23.564 0 42.667 19.103 42.667 42.667s-19.103 42.667-42.667 42.667h-256c-23.564 0-42.667-19.103-42.667-42.667s19.103-42.667 42.667-42.667zM213.333 320h597.333c23.564 0 42.667 19.103 42.667 42.667s-19.103 42.667-42.667 42.667h-597.333c-23.564 0-42.667-19.103-42.667-42.667s19.103-42.667 42.667-42.667zM384 149.333h256c23.564 0 42.667 19.103 42.667 42.667s-19.103 42.667-42.667 42.667h-256c-23.564 0-42.667-19.103-42.667-42.667s19.103-42.667 42.667-42.667z" />
<glyph unicode="&#xe902;" glyph-name="align-justify" d="M213.333 661.333h597.333c23.564 0 42.667 19.103 42.667 42.667s-19.103 42.667-42.667 42.667h-597.333c-23.564 0-42.667-19.103-42.667-42.667s19.103-42.667 42.667-42.667zM213.333 490.667h597.333c23.564 0 42.667 19.103 42.667 42.667s-19.103 42.667-42.667 42.667h-597.333c-23.564 0-42.667-19.103-42.667-42.667s19.103-42.667 42.667-42.667zM213.333 320h597.333c23.564 0 42.667 19.103 42.667 42.667s-19.103 42.667-42.667 42.667h-597.333c-23.564 0-42.667-19.103-42.667-42.667s19.103-42.667 42.667-42.667zM213.333 149.333h597.333c23.564 0 42.667 19.103 42.667 42.667s-19.103 42.667-42.667 42.667h-597.333c-23.564 0-42.667-19.103-42.667-42.667s19.103-42.667 42.667-42.667z" />
<glyph unicode="&#xe903;" glyph-name="align-left" d="M213.333 661.333h597.333c23.564 0 42.667 19.103 42.667 42.667s-19.103 42.667-42.667 42.667h-597.333c-23.564 0-42.667-19.103-42.667-42.667s19.103-42.667 42.667-42.667zM554.667 490.667h256c23.564 0 42.667 19.103 42.667 42.667s-19.103 42.667-42.667 42.667h-256c-23.564 0-42.667-19.103-42.667-42.667s19.103-42.667 42.667-42.667zM213.333 320h597.333c23.564 0 42.667 19.103 42.667 42.667s-19.103 42.667-42.667 42.667h-597.333c-23.564 0-42.667-19.103-42.667-42.667s19.103-42.667 42.667-42.667zM554.667 149.333h256c23.564 0 42.667 19.103 42.667 42.667s-19.103 42.667-42.667 42.667h-256c-23.564 0-42.667-19.103-42.667-42.667s19.103-42.667 42.667-42.667z" />
<glyph unicode="&#xe904;" glyph-name="align-right" d="M213.333 661.333h597.333c23.564 0 42.667 19.103 42.667 42.667s-19.103 42.667-42.667 42.667h-597.333c-23.564 0-42.667-19.103-42.667-42.667s19.103-42.667 42.667-42.667zM213.333 490.667h256c23.564 0 42.667 19.103 42.667 42.667s-19.103 42.667-42.667 42.667h-256c-23.564 0-42.667-19.103-42.667-42.667s19.103-42.667 42.667-42.667zM213.333 320h597.333c23.564 0 42.667 19.103 42.667 42.667s-19.103 42.667-42.667 42.667h-597.333c-23.564 0-42.667-19.103-42.667-42.667s19.103-42.667 42.667-42.667zM213.333 149.333h256c23.564 0 42.667 19.103 42.667 42.667s-19.103 42.667-42.667 42.667h-256c-23.564 0-42.667-19.103-42.667-42.667s19.103-42.667 42.667-42.667z" />
<glyph unicode="&#xe905;" glyph-name="archive" d="M853.333 540.617v-348.617c0-70.692-57.308-128-128-128h-426.667c-70.692 0-128 57.308-128 128v348.617c-49.715 17.572-85.333 64.985-85.333 120.717v42.667c0 70.692 57.308 128 128 128h597.333c70.692 0 128-57.308 128-128v-42.667c0-55.732-35.618-103.145-85.333-120.717zM768 533.333h-512v-341.333c0-23.564 19.103-42.667 42.667-42.667h426.667c23.564 0 42.667 19.103 42.667 42.667v341.333zM469.333 362.667c-23.564 0-42.667 19.103-42.667 42.667s19.103 42.667 42.667 42.667h85.333c23.564 0 42.667-19.103 42.667-42.667s-19.103-42.667-42.667-42.667h-85.333zM213.333 746.667c-23.564 0-42.667-19.103-42.667-42.667v-42.667c0-23.564 19.103-42.667 42.667-42.667h597.333c23.564 0 42.667 19.103 42.667 42.667v42.667c0 23.564-19.103 42.667-42.667 42.667h-597.333z" />
<glyph unicode="&#xe906;" glyph-name="arrow-down" d="M1002.552 724.771c-28.598 29.194-74.822 29.194-103.42 0l-387.131-395.198-387.131 395.198c-28.598 29.194-74.822 29.194-103.42 0s-28.598-76.382 0-105.575l438.841-447.986c14.262-14.56 32.986-21.877 51.71-21.877s37.448 7.317 51.71 21.877l438.841 447.986c28.598 29.194 28.598 76.382 0 105.575z" />
<glyph unicode="&#xe907;" glyph-name="arrow-left" d="M393.586 447.991l395.186 387.138c29.193 28.598 29.193 74.824 0 103.422s-76.379 28.598-105.572 0l-447.972-438.849c-29.193-28.598-29.193-74.824 0-103.422l447.972-438.849c14.559-14.263 33.673-21.43 52.786-21.43s38.227 7.168 52.786 21.43c29.193 28.598 29.193 74.824 0 103.422l-395.186 387.138z" />
<glyph unicode="&#xe908;" glyph-name="arrow-right" d="M788.772 499.702l-447.972 438.849c-29.193 28.598-76.379 28.598-105.572 0s-29.193-74.824 0-103.422l395.186-387.138-395.186-387.138c-29.193-28.598-29.193-74.824 0-103.422 14.559-14.263 33.673-21.43 52.786-21.43s38.227 7.168 52.786 21.43l447.972 438.849c29.193 28.598 29.193 74.824 0 103.422z" />
<glyph unicode="&#xe909;" glyph-name="arrow-up" d="M1002.552 276.8l-438.841 447.972c-28.598 29.193-74.822 29.193-103.42 0l-438.841-447.972c-28.598-29.193-28.598-76.379 0-105.572s74.822-29.193 103.42 0l387.131 395.186 387.131-395.186c14.262-14.559 32.986-21.876 51.71-21.876s37.448 7.317 51.71 21.876c28.598 29.193 28.598 76.379 0 105.572z" />
<glyph unicode="&#xe90a;" glyph-name="bar-code" d="M535.273 832c38.56 0 69.818-31.259 69.818-69.818v-585.697c0-38.56-31.259-69.818-69.818-69.818s-69.818 31.259-69.818 69.818v585.697c0 38.56 31.259 69.818 69.818 69.818zM674.909 832c12.853 0 23.273-10.42 23.273-23.273v-678.788c0-12.853-10.42-23.273-23.273-23.273s-23.273 10.42-23.273 23.273v678.788c0 12.853 10.42 23.273 23.273 23.273zM395.636 832c12.853 0 23.273-10.42 23.273-23.273v-678.788c0-12.853-10.42-23.273-23.273-23.273s-23.273 10.42-23.273 23.273v678.788c0 12.853 10.42 23.273 23.273 23.273zM977.455 832c25.706 0 46.545-20.839 46.545-46.545v-632.242c0-25.706-20.839-46.545-46.545-46.545s-46.545 20.839-46.545 46.545v632.242c0 25.706 20.839 46.545 46.545 46.545zM791.273 832c25.706 0 46.545-20.839 46.545-46.545v-632.242c0-25.706-20.839-46.545-46.545-46.545s-46.545 20.839-46.545 46.545v632.242c0 25.706 20.839 46.545 46.545 46.545zM209.455 832c38.56 0 69.818-31.259 69.818-69.818v-585.697c0-38.56-31.259-69.818-69.818-69.818s-69.818 31.259-69.818 69.818v585.697c0 38.56 31.259 69.818 69.818 69.818zM46.545 832c25.706 0 46.545-20.839 46.545-46.545v-632.242c0-25.706-20.839-46.545-46.545-46.545s-46.545 20.839-46.545 46.545v632.242c0 25.706 20.839 46.545 46.545 46.545z" />
<glyph unicode="&#xe90b;" glyph-name="basket" d="M322.929 590.781h378.168l-130.269 162.836c-16.644 20.806-13.271 51.165 7.534 67.809s51.165 13.271 67.809-7.534l178.489-223.111h102.853c53.288 0 96.487-43.199 96.487-96.487 0-10.371-1.672-20.673-4.951-30.512l-112.568-337.704c-13.133-39.4-50.005-65.975-91.535-65.975h-605.864c-41.531 0-78.402 26.575-91.535 65.975l-112.568 337.704c-16.851 50.554 10.47 105.196 61.024 122.047 9.838 3.279 20.141 4.951 30.512 4.951h102.853l178.489 223.111c16.644 20.806 47.004 24.179 67.809 7.534s24.179-47.004 7.534-67.809l-130.269-162.836zM222.937 494.294c-0.277-0.002-0.553-0.002-0.83 0h-125.594l112.568-337.704h605.864l112.568 337.704h-125.594c-0.277-0.002-0.553-0.002-0.83 0h-578.152zM512.013 397.807c26.644 0 48.243-21.599 48.243-48.243v-48.243c0-26.644-21.599-48.243-48.243-48.243s-48.243 21.599-48.243 48.243v48.243c0 26.644 21.599 48.243 48.243 48.243zM319.039 397.807c26.644 0 48.243-21.599 48.243-48.243v-48.243c0-26.644-21.599-48.243-48.243-48.243s-48.243 21.599-48.243 48.243v48.243c0 26.644 21.599 48.243 48.243 48.243zM704.987 397.807c26.644 0 48.243-21.599 48.243-48.243v-48.243c0-26.644-21.599-48.243-48.243-48.243s-48.243 21.599-48.243 48.243v48.243c0 26.644 21.599 48.243 48.243 48.243z" />
<glyph unicode="&#xe90c;" glyph-name="bluetooth" d="M752.016 257.67c21.273-21.772 21.273-55.015-0.009-76.755l-223.761-228.584c-10.847-11.122-22.327-16.331-37.574-16.331-4.231 0-6.858 0.122-10.24 0.696-4.552 0.773-8.623 2.209-12.109 4.714-19.713 6.587-31.178 26.681-31.178 49.27v325.791l-132.704-135.564c-21.323-21.742-53.871-21.755-75.144 0.017s-21.273 55.015 0.009 76.755l186.222 190.235-186.23 190.244c-21.283 21.783-21.296 55.032 0.017 76.763s53.854 21.731 75.135-0.009l132.695-135.556v325.791c0 23.701 12.622 44.656 31.533 49.157 20.836 10.603 43.089 6.056 59.581-10.791l223.787-228.61c21.273-21.772 21.273-55.015-0.009-76.755l-186.237-190.251 186.215-190.229zM544.199 579.389l95.108 97.158-95.108 97.158v-194.316zM639.307 219.313l-95.108 97.158v-194.316l95.108 97.158z" />
<glyph unicode="&#xe90d;" glyph-name="calendar-ok" d="M824.889 908.8v-51.2c86.253 0 156.444-68.915 156.444-153.6v-614.4c0-84.685-70.191-153.6-156.444-153.6h-625.778c-86.253 0-156.444 68.915-156.444 153.6v614.4c0 84.685 70.191 153.6 156.444 153.6v51.2c0 28.16 23.467 51.2 52.148 51.2s52.148-23.040 52.148-51.2v-51.2h417.185v51.2c0 28.16 23.467 51.2 52.148 51.2s52.148-23.040 52.148-51.2zM877.037 89.6v460.8h-730.074v-460.8c0-28.262 23.362-51.2 52.148-51.2h625.778c28.786 0 52.148 22.938 52.148 51.2zM877.037 652.8v51.2c0 28.211-23.362 51.2-52.148 51.2h-625.778c-28.786 0-52.148-22.989-52.148-51.2v-51.2h730.074zM442.469 217.866l239.147 264.149c19.134 21.134 52.096 23.038 73.621 4.252s23.465-51.148 4.331-72.283l-278.123-307.2c-20.744-22.913-57.208-22.913-77.952 0l-139.062 153.6c-19.134 21.134-17.195 53.497 4.331 72.283s54.487 16.883 73.621-4.252l100.086-110.549z" />
<glyph unicode="&#xe90e;" glyph-name="calendar" d="M824.889 857.6c86.253 0 156.444-68.915 156.444-153.6v-614.4c0-84.685-70.191-153.6-156.444-153.6h-625.778c-86.253 0-156.444 68.915-156.444 153.6v614.4c0 84.685 70.191 153.6 156.444 153.6v51.2c0 28.16 23.467 51.2 52.148 51.2s52.148-23.040 52.148-51.2v-51.2h417.185v51.2c0 28.16 23.467 51.2 52.148 51.2s52.148-23.040 52.148-51.2v-51.2zM877.037 89.6v460.8h-730.074v-460.8c0-28.262 23.362-51.2 52.148-51.2h625.778c28.786 0 52.148 22.938 52.148 51.2zM877.037 652.8v51.2c0 28.211-23.362 51.2-52.148 51.2h-625.778c-28.786 0-52.148-22.989-52.148-51.2v-51.2h730.074zM303.407 345.6c-28.838 0-52.148 22.886-52.148 51.2 0 28.262 23.31 51.2 52.148 51.2s52.148-22.938 52.148-51.2c0-28.314-23.31-51.2-52.148-51.2zM512 345.6c-28.838 0-52.148 22.886-52.148 51.2 0 28.262 23.31 51.2 52.148 51.2s52.148-22.938 52.148-51.2c0-28.314-23.31-51.2-52.148-51.2zM720.593 345.6c-28.838 0-52.148 22.886-52.148 51.2 0 28.262 23.31 51.2 52.148 51.2s52.148-22.938 52.148-51.2c0-28.314-23.31-51.2-52.148-51.2zM303.407 140.8c-28.838 0-52.148 22.886-52.148 51.2s23.31 51.2 52.148 51.2c28.838 0 52.148-22.886 52.148-51.2s-23.31-51.2-52.148-51.2zM512 140.8c-28.838 0-52.148 22.886-52.148 51.2s23.31 51.2 52.148 51.2c28.838 0 52.148-22.886 52.148-51.2s-23.31-51.2-52.148-51.2zM720.593 140.8c-28.838 0-52.148 22.886-52.148 51.2s23.31 51.2 52.148 51.2c28.838 0 52.148-22.886 52.148-51.2s-23.31-51.2-52.148-51.2z" />
<glyph unicode="&#xe90f;" glyph-name="camera" d="M315.94 773.333c21.086 59.036 77.981 101.333 144.86 101.333h102.4c66.878 0 123.774-42.297 144.86-101.333h162.34c84.831 0 153.6-68.053 153.6-152v-405.333c0-83.947-68.769-152-153.6-152h-716.8c-84.831 0-153.6 68.053-153.6 152v405.333c0 66.438 43.074 122.921 103.094 143.592-0.457 2.735-0.694 5.544-0.694 8.408 0 27.982 22.684 50.667 50.667 50.667h1.067c27.982 0 50.667-22.684 50.667-50.667h111.14zM307.2 672h-153.6c-28.277 0-51.2-22.684-51.2-50.667v-405.333c0-27.982 22.923-50.667 51.2-50.667h716.8c28.277 0 51.2 22.684 51.2 50.667v405.333c0 27.982-22.923 50.667-51.2 50.667h-563.2zM512 216c-113.108 0-204.8 90.737-204.8 202.667s91.692 202.667 204.8 202.667c113.108 0 204.8-90.737 204.8-202.667s-91.692-202.667-204.8-202.667zM512 317.333c56.554 0 102.4 45.368 102.4 101.333s-45.846 101.333-102.4 101.333c-56.554 0-102.4-45.368-102.4-101.333s45.846-101.333 102.4-101.333zM818.667 317.333h1.067c27.982 0 50.667-22.684 50.667-50.667s-22.684-50.667-50.667-50.667h-1.067c-27.982 0-50.667 22.684-50.667 50.667s22.684 50.667 50.667 50.667z" />
<glyph unicode="&#xe910;" glyph-name="cart" d="M220.204 862.815h693.695c60.808 0 110.102-48.818 110.102-109.037 0-18.53-4.769-36.755-13.856-52.953l-152.919-272.593c-19.419-34.615-56.261-56.084-96.246-56.084h-451.204l-56.329-110.274h573.643c30.404 0 55.051-24.409 55.051-54.519s-24.647-54.519-55.051-54.519h-663.185c-41.037 0-67.647 42.864-49.123 79.128l95.033 186.044c-6.201 8.637-11.195 18.269-14.705 28.695l-91.751 272.593c-9.843 29.244-6.478 59.699 6.889 85.016-0.096 1.315-0.145 2.643-0.145 3.983h-55.051c-30.404 0-55.051 24.409-55.051 54.519s24.647 54.519 55.051 54.519h110.102c30.404 0 55.051-24.409 55.051-54.519zM207.809 753.778l91.751-272.593h461.419l152.919 272.593h-706.089zM688.136-64c-45.606 0-82.576 36.613-82.576 81.778s36.971 81.778 82.576 81.778c45.606 0 82.576-36.613 82.576-81.778s-36.971-81.778-82.576-81.778zM137.627-64c-45.606 0-82.576 36.613-82.576 81.778s36.971 81.778 82.576 81.778c45.606 0 82.576-36.613 82.576-81.778s-36.971-81.778-82.576-81.778z" />
<glyph unicode="&#xe911;" glyph-name="change" d="M644.392 656.593h-439.592c-56.554 0-102.4-46.695-102.4-104.296v-260.741c0-28.801-22.923-52.148-51.2-52.148s-51.2 23.348-51.2 52.148v260.741c0 115.203 91.692 208.593 204.8 208.593h439.592l-66.196 67.422c-19.995 20.365-19.995 53.383 0 73.749s52.413 20.365 72.408 0l153.6-156.444c19.995-20.365 19.995-53.383 0-73.749l-153.6-156.444c-19.995-20.365-52.413-20.365-72.408 0s-19.995 53.384 0 73.749l66.196 67.422zM379.608 239.407h439.592c56.554 0 102.4 46.695 102.4 104.296v260.741c0 28.801 22.923 52.148 51.2 52.148s51.2-23.348 51.2-52.148v-260.741c0-115.203-91.692-208.593-204.8-208.593h-439.592l66.196-67.422c19.995-20.365 19.995-53.383 0-73.749s-52.413-20.365-72.408 0l-153.6 156.444c-19.995 20.365-19.995 53.383 0 73.749l153.6 156.444c19.995 20.365 52.413 20.365 72.408 0s19.995-53.384 0-73.749l-66.196-67.422z" />
<glyph unicode="&#xe912;" glyph-name="chart-area" d="M665.6 548.987l168.596 166.84c32.254 31.918 87.404 9.312 87.404-35.827v-405.333c0-27.982-22.923-50.667-51.2-50.667h-614.4c-45.614 0-68.458 54.575-36.204 86.493l307.2 304c19.995 19.787 52.413 19.787 72.408 0l66.196-65.507zM379.608 325.333h439.592v232.347l-117.396-116.173c-19.995-19.787-52.413-19.787-72.408 0l-66.196 65.507-183.592-181.68zM102.4 122.667h870.4c28.277 0 51.2-22.684 51.2-50.667s-22.923-50.667-51.2-50.667h-921.6c-28.277 0-51.2 22.684-51.2 50.667v709.333c0 27.982 22.923 50.667 51.2 50.667s51.2-22.684 51.2-50.667v-658.667z" />
<glyph unicode="&#xe913;" glyph-name="chart-columns" d="M102.4 165.333h870.4c28.277 0 51.2-22.684 51.2-50.667s-22.923-50.667-51.2-50.667h-921.6c-14.138 0-26.938 5.671-36.204 14.84s-14.996 21.836-14.996 35.827v709.333c0 27.982 22.923 50.667 51.2 50.667s51.2-22.684 51.2-50.667v-658.667zM307.2 317.333c0-27.982-22.923-50.667-51.2-50.667s-51.2 22.684-51.2 50.667v101.333c0 27.982 22.923 50.667 51.2 50.667s51.2-22.684 51.2-50.667v-101.333zM512 317.333c0-27.982-22.923-50.667-51.2-50.667s-51.2 22.684-51.2 50.667v202.667c0 27.982 22.923 50.667 51.2 50.667s51.2-22.684 51.2-50.667v-202.667zM716.8 317.333c0-27.982-22.923-50.667-51.2-50.667s-51.2 22.684-51.2 50.667v304c0 27.982 22.923 50.667 51.2 50.667s51.2-22.684 51.2-50.667v-304zM921.6 317.333c0-27.982-22.923-50.667-51.2-50.667s-51.2 22.684-51.2 50.667v405.333c0 27.982 22.923 50.667 51.2 50.667s51.2-22.684 51.2-50.667v-405.333z" />
<glyph unicode="&#xe914;" glyph-name="chart-down" d="M707.66 337.673c33.325 33.325 87.355 33.325 120.68 0s33.325-87.355 0-120.68l-256-256c-33.325-33.325-87.355-33.325-120.68 0l-256 256c-33.325 33.325-33.325 87.355 0 120.68s87.355 33.325 120.68 0l110.327-110.327v647.32c0 47.128 38.205 85.333 85.333 85.333s85.333-38.205 85.333-85.333v-647.32l110.327 110.327z" />
<glyph unicode="&#xe915;" glyph-name="chart-up" d="M442.667 642.168l-117.222-120.357c-35.408-36.354-92.814-36.354-128.222 0s-35.408 95.296 0 131.65l272 279.273c35.408 36.354 92.814 36.354 128.222 0l272-279.273c35.408-36.354 35.408-95.296 0-131.65s-92.814-36.354-128.222 0l-117.222 120.357v-613.077c0-51.413-40.593-93.091-90.667-93.091s-90.667 41.678-90.667 93.091v613.077z" />
<glyph unicode="&#xe916;" glyph-name="chat" d="M213.333 661.333v85.333c0 70.692 57.308 128 128 128h554.667c70.692 0 128-57.308 128-128v-341.333c0-70.692-57.308-128-128-128h-42.667v-85.333c0-16.161-9.131-30.935-23.586-38.162s-31.752-5.668-44.681 4.029l-102.4 76.8c0-70.692-57.308-128-128-128h-156.587l-159.147-119.467c-12.929-9.697-30.226-11.256-44.681-4.029s-23.586 22.001-23.586 38.162v85.333h-42.667c-70.692 0-128 57.308-128 128v298.667c0 70.692 57.308 128 128 128h85.333zM597.333 277.333h-256c-70.692 0-128 57.308-128 128v170.667h-85.333c-23.564 0-42.667-19.103-42.667-42.667v-298.667c0-23.564 19.103-42.667 42.667-42.667h85.333c23.564 0 42.667-19.103 42.667-42.667v-42.667l102.4 76.8c7.385 5.539 16.368 8.533 25.6 8.533h170.667c23.564 0 42.667 19.103 42.667 42.667v42.667zM298.667 405.333c0-23.564 19.103-42.667 42.667-42.667h298.667c9.232 0 18.215-2.994 25.6-8.533l102.4-76.8v42.667c0 23.564 19.103 42.667 42.667 42.667h85.333c23.564 0 42.667 19.103 42.667 42.667v341.333c0 23.564-19.103 42.667-42.667 42.667h-554.667c-23.564 0-42.667-19.103-42.667-42.667v-341.333z" />
<glyph unicode="&#xe917;" glyph-name="clear-content" d="M512 538.51l-146.745 146.745c-24.994 24.994-65.516 24.994-90.51 0s-24.994-65.516 0-90.51l146.745-146.745-146.745-146.745c-24.994-24.994-24.994-65.516 0-90.51s65.516-24.994 90.51 0l146.745 146.745 146.745-146.745c24.994-24.994 65.516-24.994 90.51 0s24.994 65.516 0 90.51l-146.745 146.745 146.745 146.745c24.994 24.994 24.994 65.516 0 90.51s-65.516 24.994-90.51 0l-146.745-146.745zM512-64c-282.77 0-512 229.23-512 512s229.23 512 512 512c282.77 0 512-229.23 512-512s-229.23-512-512-512z" />
<glyph unicode="&#xe918;" glyph-name="clock" d="M512 960c-282.77 0-512-229.23-512-512s229.23-512 512-512c282.77 0 512 229.23 512 512s-229.23 512-512 512zM512 49.778c-219.932 0-398.222 178.29-398.222 398.222s178.29 398.222 398.222 398.222c219.932 0 398.222-178.29 398.222-398.222s-178.29-398.222-398.222-398.222zM570.261 469.879v205.362c0 31.593-25.777 57.204-57.574 57.204s-57.575-25.611-57.575-57.204v-228.815c-0.088-15.205 5.92-29.819 16.698-40.615l172.723-171.611c22.843-19.437 56.895-18.13 78.161 3s22.581 54.962 3.019 77.658l-155.451 155.022z" />
<glyph unicode="&#xe919;" glyph-name="close-menu" d="M218.51 512h741.49c35.346 0 64-28.654 64-64s-28.654-64-64-64h-741.49l82.745-82.745c24.994-24.994 24.994-65.516 0-90.51s-65.516-24.994-90.51 0l-192 192c-11.582 11.582-18.745 27.582-18.745 45.255s7.163 33.673 18.745 45.255l192 192c24.994 24.994 65.516 24.994 90.51 0s24.994-65.516 0-90.51l-82.745-82.745zM512 192h448c35.346 0 64-28.654 64-64s-28.654-64-64-64h-448c-35.346 0-64 28.654-64 64s28.654 64 64 64zM512 832h448c35.346 0 64-28.654 64-64s-28.654-64-64-64h-448c-35.346 0-64 28.654-64 64s28.654 64 64 64z" />
<glyph unicode="&#xe91a;" glyph-name="close" d="M632.656 447.989l366.321 366.328c33.364 33.365 33.364 87.294 0 120.659s-87.292 33.365-120.656 0l-366.321-366.328-366.321 366.328c-33.364 33.365-87.292 33.365-120.656 0s-33.364-87.294 0-120.659l366.321-366.328-366.321-366.328c-33.364-33.365-33.364-87.294 0-120.659 16.639-16.64 38.484-25.002 60.328-25.002s43.689 8.362 60.328 25.002l366.321 366.328 366.321-366.328c16.639-16.64 38.484-25.002 60.328-25.002s43.689 8.362 60.328 25.002c33.364 33.365 33.364 87.294 0 120.659l-366.321 366.328z" />
<glyph unicode="&#xe91b;" glyph-name="company" d="M409.6 38.4h102.4v768c0 28.277-22.923 51.2-51.2 51.2h-307.2c-28.277 0-51.2-22.923-51.2-51.2v-768h102.4v51.2c0 28.277 22.923 51.2 51.2 51.2h102.4c28.277 0 51.2-22.923 51.2-51.2v-51.2zM512-64h-512v921.6c0 56.554 45.846 102.4 102.4 102.4h409.6c56.554 0 102.4-45.846 102.4-102.4v-204.8h307.2c56.554 0 102.4-45.846 102.4-102.4v-614.4h-512zM614.4 38.4h307.2v460.8c0 28.277-22.923 51.2-51.2 51.2h-204.8c-28.277 0-51.2-22.923-51.2-51.2v-460.8zM768 448c28.277 0 51.2-22.923 51.2-51.2s-22.923-51.2-51.2-51.2c-28.277 0-51.2 22.923-51.2 51.2s22.923 51.2 51.2 51.2zM768 243.2c28.277 0 51.2-22.923 51.2-51.2s-22.923-51.2-51.2-51.2c-28.277 0-51.2 22.923-51.2 51.2s22.923 51.2 51.2 51.2zM256 755.2h102.4c28.277 0 51.2-22.923 51.2-51.2s-22.923-51.2-51.2-51.2h-102.4c-28.277 0-51.2 22.923-51.2 51.2s22.923 51.2 51.2 51.2zM256 550.4h102.4c28.277 0 51.2-22.923 51.2-51.2s-22.923-51.2-51.2-51.2h-102.4c-28.277 0-51.2 22.923-51.2 51.2s22.923 51.2 51.2 51.2zM256 345.6h102.4c28.277 0 51.2-22.923 51.2-51.2s-22.923-51.2-51.2-51.2h-102.4c-28.277 0-51.2 22.923-51.2 51.2s22.923 51.2 51.2 51.2z" />
<glyph unicode="&#xe91c;" glyph-name="copy" d="M745.412 960h-351.373c-83.168 0-150.588-68.769-150.588-153.6v-51.2h-50.196c-83.168 0-150.588-68.769-150.588-153.6v-512c0-84.831 67.421-153.6 150.588-153.6h351.373c83.168 0 150.588 68.769 150.588 153.6v51.2h50.196c83.168 0 150.588 68.769 150.588 153.6v512c0 84.831-67.421 153.6-150.588 153.6zM594.824 89.6c0-28.277-22.474-51.2-50.196-51.2h-351.373c-27.723 0-50.196 22.923-50.196 51.2v512c0 28.277 22.474 51.2 50.196 51.2h351.373c27.723 0 50.196-22.923 50.196-51.2v-512zM795.608 294.4c0-28.277-22.474-51.2-50.196-51.2h-50.196v358.4c0 84.831-67.421 153.6-150.588 153.6h-200.784v51.2c0 28.277 22.474 51.2 50.196 51.2h351.373c27.723 0 50.196-22.923 50.196-51.2v-512z" />
<glyph unicode="&#xe91d;" glyph-name="credit-payment" d="M139.636 832h744.727c77.119 0 139.636-60.889 139.636-136v-453.333c0-75.111-62.517-136-139.636-136h-744.727c-77.119 0-139.636 60.889-139.636 136v453.333c0 75.111 62.517 136 139.636 136zM139.636 741.333c-25.706 0-46.545-20.296-46.545-45.333v-453.333c0-25.037 20.839-45.333 46.545-45.333h744.727c25.706 0 46.545 20.296 46.545 45.333v453.333c0 25.037-20.839 45.333-46.545 45.333h-744.727zM209.455 605.333h139.636c12.853 0 23.273-10.42 23.273-23.273v-89.455c0-12.853-10.42-23.273-23.273-23.273h-139.636c-12.853 0-23.273 10.42-23.273 23.273v89.455c0 12.853 10.42 23.273 23.273 23.273zM209.455 378.667h418.909c12.853 0 23.273-10.42 23.273-23.273v-44.121c0-12.853-10.42-23.273-23.273-23.273h-418.909c-12.853 0-23.273 10.42-23.273 23.273v44.121c0 12.853 10.42 23.273 23.273 23.273zM721.455 378.667h93.091c12.853 0 23.273-10.42 23.273-23.273v-44.121c0-12.853-10.42-23.273-23.273-23.273h-93.091c-12.853 0-23.273 10.42-23.273 23.273v44.121c0 12.853 10.42 23.273 23.273 23.273z" />
<glyph unicode="&#xe91e;" glyph-name="cut" d="M772.741 140.8v-51.2c0-84.831-70.043-153.6-156.444-153.6h-417.185c-86.402 0-156.444 68.769-156.444 153.6v512c0 84.831 70.043 153.6 156.444 153.6h52.148v51.2c0 84.831 70.043 153.6 156.444 153.6h156.444v-102.4h-156.444c-28.801 0-52.148-22.923-52.148-51.2v-51.2h260.741c86.402 0 156.444-68.769 156.444-153.6v-358.4h52.148c28.801 0 52.148 22.923 52.148 51.2v204.8h104.296v-204.8c0-84.831-70.043-153.6-156.444-153.6h-52.148zM199.111 652.8c-28.801 0-52.148-22.923-52.148-51.2v-512c0-28.277 23.348-51.2 52.148-51.2h417.185c28.801 0 52.148 22.923 52.148 51.2v512c0 28.277-23.348 51.2-52.148 51.2h-417.185zM668.444 960h156.444c86.402 0 156.444-68.769 156.444-153.6v-204.8h-104.296v204.8c0 28.277-23.348 51.2-52.148 51.2h-156.444v102.4z" />
<glyph unicode="&#xe91f;" glyph-name="database" d="M1024 874.485v-810.517c0-94.239-229.23-170.635-512-170.635s-512 76.396-512 170.635v810.517c0 0.071 0 0.142 0 0.213 0 94.239 229.23 170.635 512 170.635s512-76.396 512-170.635c0-0.071 0-0.142 0-0.213zM128 789.381v-127.976c0-70.679 171.923-127.976 384-127.976s384 57.297 384 127.976v127.976c0 70.679-171.923 127.976-384 127.976s-384-57.297-384-127.976zM896 533.428c0-70.679-171.923-127.976-384-127.976s-384 57.297-384 127.976v-127.976c0-70.679 171.923-127.976 384-127.976s384 57.297 384 127.976v127.976zM896 277.476c0-70.679-171.923-127.976-384-127.976s-384 57.297-384 127.976v-127.976c0-70.679 171.923-127.976 384-127.976s384 57.297 384 127.976v127.976z" />
<glyph unicode="&#xe920;" glyph-name="debit-payment" d="M139.636 832h744.727c77.119 0 139.636-60.889 139.636-136v-453.333c0-75.111-62.517-136-139.636-136h-744.727c-77.119 0-139.636 60.889-139.636 136v453.333c0 75.111 62.517 136 139.636 136zM139.636 741.333c-25.706 0-46.545-20.296-46.545-45.333v-453.333c0-25.037 20.839-45.333 46.545-45.333h744.727c25.706 0 46.545 20.296 46.545 45.333v453.333c0 25.037-20.839 45.333-46.545 45.333h-744.727zM93.091 650.667h837.818v-136h-837.818v136z" />
<glyph unicode="&#xe921;" glyph-name="delete" d="M967.111 846.222c31.419 0 56.889-25.47 56.889-56.889s-25.47-56.889-56.889-56.889h-56.889v-625.778c0-94.257-76.41-170.667-170.667-170.667h-455.111c-94.257 0-170.667 76.41-170.667 170.667v625.778h-56.889c-31.419 0-56.889 25.47-56.889 56.889s25.47 56.889 56.889 56.889h237.796c24.050 68.024 88.277 113.575 160.427 113.778h113.778c72.15-0.203 136.377-45.754 160.427-113.778h237.796zM796.444 106.667v625.778h-568.889v-625.778c0-31.419 25.47-56.889 56.889-56.889h455.111c31.419 0 56.889 25.47 56.889 56.889zM625.778 618.667c31.419 0 56.889-25.47 56.889-56.889v-341.333c0-31.419-25.47-56.889-56.889-56.889s-56.889 25.47-56.889 56.889v341.333c0 31.419 25.47 56.889 56.889 56.889zM398.222 618.667c31.419 0 56.889-25.47 56.889-56.889v-341.333c0-31.419-25.47-56.889-56.889-56.889s-56.889 25.47-56.889 56.889v341.333c0 31.419 25.47 56.889 56.889 56.889z" />
<glyph unicode="&#xe922;" glyph-name="device-desktop" d="M558.545 166.4v-93.867h139.636c25.706 0 46.545-21.013 46.545-46.933s-20.839-46.933-46.545-46.933h-372.364c-25.706 0-46.545 21.013-46.545 46.933s20.839 46.933 46.545 46.933h139.636v93.867h-325.818c-77.119 0-139.636 63.038-139.636 140.8v469.333c0 77.762 62.517 140.8 139.636 140.8h744.727c77.119 0 139.636-63.038 139.636-140.8v-469.333c0-77.762-62.517-140.8-139.636-140.8h-325.818zM139.636 823.467c-25.706 0-46.545-21.013-46.545-46.933v-469.333c0-25.921 20.839-46.933 46.545-46.933h744.727c25.706 0 46.545 21.013 46.545 46.933v469.333c0 25.921-20.839 46.933-46.545 46.933h-744.727z" />
<glyph unicode="&#xe923;" glyph-name="device-notebook" d="M170.667 917.333h682.667c94.257 0 170.667-75.216 170.667-168v-336c0-92.784-76.41-168-170.667-168h-682.667c-94.257 0-170.667 75.216-170.667 168v336c0 92.784 76.41 168 170.667 168zM170.667 805.333c-31.419 0-56.889-25.072-56.889-56v-336c0-30.928 25.47-56 56.889-56h682.667c31.419 0 56.889 25.072 56.889 56v336c0 30.928-25.47 56-56.889 56h-682.667zM56.889 133.333h910.222c31.419 0 56.889-25.072 56.889-56s-25.47-56-56.889-56h-910.222c-31.419 0-56.889 25.072-56.889 56s25.47 56 56.889 56z" />
<glyph unicode="&#xe924;" glyph-name="device-smartphone" d="M341.333 960h341.333c94.257 0 170.667-76.41 170.667-170.667v-682.667c0-94.257-76.41-170.667-170.667-170.667h-341.333c-94.257 0-170.667 76.41-170.667 170.667v682.667c0 94.257 76.41 170.667 170.667 170.667zM341.333 846.222c-31.419 0-56.889-25.47-56.889-56.889v-682.667c0-31.419 25.47-56.889 56.889-56.889h341.333c31.419 0 56.889 25.47 56.889 56.889v682.667c0 31.419-25.47 56.889-56.889 56.889h-341.333zM512 163.556c-31.419 0-56.889 25.47-56.889 56.889s25.47 56.889 56.889 56.889c31.419 0 56.889-25.47 56.889-56.889s-25.47-56.889-56.889-56.889z" />
<glyph unicode="&#xe925;" glyph-name="device-tablet" d="M264 960h453.333c75.111 0 136-62.517 136-139.636v-744.727c0-77.119-60.889-139.636-136-139.636h-453.333c-75.111 0-136 62.517-136 139.636v744.727c0 77.119 60.889 139.636 136 139.636zM264 866.909c-25.037 0-45.333-20.839-45.333-46.545v-744.727c0-25.706 20.296-46.545 45.333-46.545h453.333c25.037 0 45.333 20.839 45.333 46.545v744.727c0 25.706-20.296 46.545-45.333 46.545h-453.333zM490.667 122.182c-25.037 0-45.333 20.839-45.333 46.545s20.296 46.545 45.333 46.545c25.037 0 45.333-20.839 45.333-46.545s-20.296-46.545-45.333-46.545z" />
<glyph unicode="&#xe926;" glyph-name="document-double" d="M564.090 447.949v-358.364c0-28.274-23.345-51.195-52.142-51.195h-312.854c-28.797 0-52.142 22.921-52.142 51.195v460.754c0 28.274 23.345 51.195 52.142 51.195h208.569c28.797 0 52.142 22.921 52.142 51.195s-23.345 51.195-52.142 51.195h-208.569c-86.392 0-156.427-68.762-156.427-153.585v-460.754c0-84.822 70.035-153.585 156.427-153.585h312.854c86.392 0 156.427 68.762 156.427 153.585v358.364c0 28.274-23.345 51.195-52.142 51.195s-52.142-22.921-52.142-51.195zM444.533 688.928l208.569-204.779c32.848-32.251 9.584-87.395-36.87-87.395h-208.569c-28.797 0-52.142 22.921-52.142 51.195v204.779c0 45.61 56.165 68.451 89.013 36.2zM459.805 550.338v-51.195h52.142l-52.142 51.195zM564.090 191.974h260.712c86.392 0 156.427 68.762 156.427 153.585v358.364c0 28.274-23.345 51.195-52.142 51.195s-52.142-22.921-52.142-51.195v-358.364c0-28.274-23.345-51.195-52.142-51.195h-208.569v-102.39h-52.142zM355.521 652.728h104.285v153.585c0 28.274 23.345 51.195 52.142 51.195h208.569c28.797 0 52.142 22.921 52.142 51.195s-23.345 51.195-52.142 51.195h-208.569c-86.392 0-156.427-68.762-156.427-153.585v-153.585zM757.387 944.903l208.569-204.779c32.848-32.251 9.584-87.395-36.87-87.395h-208.569c-28.797 0-52.142 22.921-52.142 51.195v204.779c0 45.61 56.165 68.451 89.013 36.2zM772.659 806.313v-51.195h52.142l-52.142 51.195z" />
<glyph unicode="&#xe927;" glyph-name="document-filled" d="M896 655.872c0-3.072 0-3.072 0-3.072v-563.2c0-84.831-68.053-153.6-152-153.6h-506.667c-83.947 0-152 68.769-152 153.6v716.8c0 84.831 68.053 153.6 152 153.6h357.707c5.303-0.881 10.434-2.609 15.2-5.12h5.067c5.459-2.508 10.434-5.975 14.693-10.24l253.333-256c4.221-4.304 7.652-9.332 10.133-14.848v-4.608c1.425-4.304 2.276-8.781 2.533-13.312zM744 38.4c27.982 0 50.667 22.923 50.667 51.2v512h-202.667c-27.982 0-50.667 22.923-50.667 51.2v204.8h-304c-27.982 0-50.667-22.923-50.667-51.2v-716.8c0-28.277 22.684-51.2 50.667-51.2h506.667zM723.227 704l-80.56 81.408v-81.408h80.56zM339.2 499.2h302.933c28.277 0 51.2-22.923 51.2-51.2s-22.923-51.2-51.2-51.2h-302.933c-28.277 0-51.2 22.923-51.2 51.2s22.923 51.2 51.2 51.2zM339.2 294.4h150.933c28.277 0 51.2-22.923 51.2-51.2s-22.923-51.2-51.2-51.2h-150.933c-28.277 0-51.2 22.923-51.2 51.2s22.923 51.2 51.2 51.2zM642.667 294.4c27.982 0 50.667-22.684 50.667-50.667v-1.067c0-27.982-22.684-50.667-50.667-50.667s-50.667 22.684-50.667 50.667v1.067c0 27.982 22.684 50.667 50.667 50.667z" />
<glyph unicode="&#xe928;" glyph-name="document" d="M896 655.872c-0.257 4.531-1.109 9.008-2.533 13.312v4.608c-2.482 5.516-5.913 10.544-10.133 14.848l-253.333 256c-4.26 4.265-9.235 7.732-14.693 10.24h-5.067c-4.766 2.511-9.897 4.239-15.2 5.12h-357.707c-83.947 0-152-68.769-152-153.6v-716.8c0-84.831 68.053-153.6 152-153.6h506.667c83.947 0 152 68.769 152 153.6v563.2c0 0 0 0 0 3.072zM723.227 704h-80.56v81.408l80.56-81.408zM744 38.4h-506.667c-27.982 0-50.667 22.923-50.667 51.2v716.8c0 28.277 22.684 51.2 50.667 51.2h304v-204.8c0-28.277 22.684-51.2 50.667-51.2h202.667v-512c0-28.277-22.684-51.2-50.667-51.2z" />
<glyph unicode="&#xe929;" glyph-name="download" d="M744-64c-27.982 0-50.667 22.923-50.667 51.2s22.684 51.2 50.667 51.2c27.982 0 50.667 22.923 50.667 51.2v512h-202.667c-27.982 0-50.667 22.923-50.667 51.2v204.8h-304c-27.982 0-50.667-22.923-50.667-51.2v-716.8c0-28.277 22.684-51.2 50.667-51.2s50.667-22.923 50.667-51.2c0-28.277-22.684-51.2-50.667-51.2s-50.667 22.923-50.667 51.2c0 28.277 22.684 51.2 50.667 51.2v-102.4c-83.947 0-152 68.769-152 153.6v716.8c0 84.831 68.053 153.6 152 153.6h357.707c5.303-0.881 10.434-2.609 15.2-5.12h5.067c5.459-2.508 10.434-5.975 14.693-10.24l253.333-256c4.221-4.304 7.652-9.332 10.133-14.848v-4.608c1.425-4.304 2.276-8.781 2.533-16.384v-563.2c0-84.831-68.053-153.6-152-153.6zM723.227 704l-80.56 81.408v-81.408h80.56zM541.333 110.808v337.192c0 28.277-22.684 51.2-50.667 51.2s-50.667-22.923-50.667-51.2v-337.192l-65.507 66.196c-19.787 19.995-51.867 19.995-71.653 0s-19.787-52.413 0-72.408l152-153.6c19.787-19.995 51.867-19.995 71.653 0l152 153.6c19.787 19.995 19.787 52.413 0 72.408s-51.867 19.995-71.653 0l-65.507-66.196z" />
<glyph unicode="&#xe92a;" glyph-name="edit" d="M1007.178 744.356l-199.047 199.102c-22.182 22.056-58.006 22.056-80.187 0l-711.45-711.079c-10.645-10.736-16.58-25.269-16.493-40.389v-199.102c0-31.417 25.463-56.887 56.871-56.887h199.047c15.116-0.086 29.646 5.85 40.378 16.498l710.881 711.079c10.766 10.681 16.822 25.221 16.822 40.389s-6.056 29.708-16.822 40.389zM232.601 49.774h-118.859v118.892l497.617 497.755 118.859-118.892-497.617-497.755zM810.406 627.739l-118.859 118.892 76.206 76.228 118.859-118.892-76.206-76.228z" />
<glyph unicode="&#xe92b;" glyph-name="exam" d="M364.688 395.852h294.709l-86.952 126.539c-6.023 8.765-9.254 19.206-9.254 29.905v260.741h-102.382v-260.903c0-10.702-3.232-21.145-9.258-29.911l-86.863-126.371zM294.175 293.268l-144.557-210.305h724.781l-144.522 210.319c-4.185-1.127-8.581-1.727-13.113-1.727h-409.529c-4.514 0-8.891 0.595-13.061 1.713zM358.427 813.037c-28.272 0-51.191 23.348-51.191 52.148s22.919 52.148 51.191 52.148h307.147c28.272 0 51.191-23.348 51.191-52.148s-22.919-52.148-51.191-52.148v-244.302l349.084-508.015c23.75-34.563-0.523-82.053-41.937-82.053h-921.44c-41.418 0-65.69 47.497-41.933 82.059l349.080 507.85v244.461z" />
<glyph unicode="&#xe92c;" glyph-name="exclamation" d="M42.667 448c0 258.773 210.56 469.333 469.333 469.333s469.333-210.56 469.333-469.333c0-258.773-210.56-469.333-469.333-469.333s-469.333 210.56-469.333 469.333zM128 448c0-211.755 172.245-384 384-384s384 172.245 384 384c0 211.712-172.245 384-384 384s-384-172.288-384-384zM469.333 192c0 23.595 19.072 42.667 42.667 42.667s42.667-19.072 42.667-42.667c0-23.595-19.072-42.667-42.667-42.667s-42.667 19.072-42.667 42.667zM512 704c23.564 0 42.667-19.103 42.667-42.667v-341.333c0-23.564-19.103-42.667-42.667-42.667s-42.667 19.103-42.667 42.667v341.333c0 23.564 19.103 42.667 42.667 42.667z" />
<glyph unicode="&#xe92d;" glyph-name="exit" d="M829.769 525.333l-73.551 72.402c-22.216 21.869-22.216 57.327 0 79.196s58.237 21.869 80.453 0l167.237-164.624c12.252-10.248 20.055-25.638 20.092-42.851 0-0.082 0-0.164 0-0.246-0.037-17.213-7.84-32.603-20.092-42.851l-167.237-164.624c-22.216-21.869-58.237-21.869-80.453 0s-22.216 57.327 0 79.196l73.551 72.402h-318.658c-30.928 0-56 25.072-56 56s25.072 56 56 56h318.658zM625.778 245.333c-31.419 0-56.889-25.072-56.889-56h113.778c0 30.928-25.47 56-56.889 56 31.419 0 56.889-25.072 56.889-56 0-92.784-76.41-168-170.667-168h-341.333c-94.257 0-170.667 75.216-170.667 168v560c0 92.784 76.41 168 170.667 168h341.333c94.257 0 170.667-75.216 170.667-168 0-30.928-25.47-56-56.889-56 31.419 0 56.889 25.072 56.889 56h-113.778c0-30.928 25.47-56 56.889-56-31.419 0-56.889 25.072-56.889 56s-25.47 56-56.889 56h-341.333c-31.419 0-56.889-25.072-56.889-56v-560c0-30.928 25.47-56 56.889-56h341.333c31.419 0 56.889 25.072 56.889 56s25.47 56 56.889 56z" />
<glyph unicode="&#xe92e;" glyph-name="export" d="M805.49 832h-101.49c-35.346 0-64 28.654-64 64s28.654 64 64 64h256c35.346 0 64-28.654 64-64v-256c0-35.346-28.654-64-64-64s-64 28.654-64 64v101.49l-274.745-274.745c-24.994-24.994-65.516-24.994-90.51 0s-24.994 65.516 0 90.51l274.745 274.745zM896 384c0 35.346 28.654 64 64 64s64-28.654 64-64v-256c0-106.039-85.961-192-192-192h-640c-106.039 0-192 85.961-192 192v640c0 106.039 85.961 192 192 192h256c35.346 0 64-28.654 64-64s-28.654-64-64-64h-256c-35.346 0-64-28.654-64-64v-640c0-35.346 28.654-64 64-64h640c35.346 0 64 28.654 64 64v256z" />
<glyph unicode="&#xe92f;" glyph-name="eye" d="M1020.793 465.067c-8.551 17.067-188.125 366.933-508.793 366.933s-500.242-349.867-508.793-366.933c-4.276-12.8-4.276-25.6 0-38.4 8.551-12.8 188.125-362.667 508.793-362.667s500.242 349.867 508.793 366.933c4.276 8.533 4.276 25.6 0 34.133zM512 149.333c-230.881 0-380.526 230.4-423.282 298.667 38.48 68.267 192.401 298.667 423.282 298.667s380.526-230.4 423.282-298.667c-42.756-68.267-192.401-298.667-423.282-298.667zM512 618.667c-94.063 0-171.023-76.8-171.023-170.667s76.96-170.667 171.023-170.667c94.063 0 171.023 76.8 171.023 170.667s-76.96 170.667-171.023 170.667zM512 362.667c-47.031 0-85.511 38.4-85.511 85.333s38.48 85.333 85.511 85.333c47.031 0 85.511-38.4 85.511-85.333s-38.48-85.333-85.511-85.333z" />
<glyph unicode="&#xe930;" glyph-name="filter" d="M960 746.667c35.346 0 64-28.654 64-64s-28.654-64-64-64h-896c-35.346 0-64 28.654-64 64s28.654 64 64 64h896zM768 490.667c35.346 0 64-28.654 64-64s-28.654-64-64-64h-512c-35.346 0-64 28.654-64 64s28.654 64 64 64h512zM576 234.667c35.346 0 64-28.654 64-64s-28.654-64-64-64h-128c-35.346 0-64 28.654-64 64s28.654 64 64 64h128z" />
<glyph unicode="&#xe931;" glyph-name="finance-bitcoin" d="M554.667 192v-42.667c0-23.564-19.103-42.667-42.667-42.667s-42.667 19.103-42.667 42.667v42.667h-85.333c-23.564 0-42.667 19.103-42.667 42.667v426.667c0 23.564 19.103 42.667 42.667 42.667h85.333v42.667c0 23.564 19.103 42.667 42.667 42.667s42.667-19.103 42.667-42.667v-44.179c72.369-10.352 128-72.59 128-147.821 0-32.28-10.242-62.168-27.654-86.592 42.228-26.381 70.321-73.281 70.321-126.742 0-82.475-66.859-149.333-149.333-149.333h-21.333zM512 917.333c258.773 0 469.333-210.56 469.333-469.333s-210.56-469.333-469.333-469.333c-258.773 0-469.333 210.56-469.333 469.333s210.56 469.333 469.333 469.333zM512 64c211.755 0 384 172.245 384 384 0 211.712-172.245 384-384 384s-384-172.288-384-384c0-211.755 172.245-384 384-384zM469.333 618.667c-23.564 0-42.667-19.103-42.667-42.667v-42.667c0-23.564 19.103-42.667 42.667-42.667h64c35.346 0 64 28.654 64 64s-28.654 64-64 64h-64zM469.333 405.333c-23.564 0-42.667-19.103-42.667-42.667v-42.667c0-23.564 19.103-42.667 42.667-42.667h106.667c35.346 0 64 28.654 64 64s-28.654 64-64 64h-106.667z" />
<glyph unicode="&#xe932;" glyph-name="finance-secure" d="M512 320h-21.333c-82.475 0-149.333 66.859-149.333 149.333 0 75.231 55.631 137.469 128 147.821v44.179c0 23.564 19.103 42.667 42.667 42.667s42.667-19.103 42.667-42.667v-42.667h85.333c23.564 0 42.667-19.103 42.667-42.667s-19.103-42.667-42.667-42.667h-149.333c-35.346 0-64-28.654-64-64s28.654-64 64-64h85.333c82.475 0 149.333-66.859 149.333-149.333s-66.859-149.333-149.333-149.333h-21.333v-42.667c0-23.564-19.103-42.667-42.667-42.667s-42.667 19.103-42.667 42.667v42.667h-85.333c-23.564 0-42.667 19.103-42.667 42.667s19.103 42.667 42.667 42.667h192c35.346 0 64 28.654 64 64s-28.654 64-64 64h-64zM512 784.297l-322.252-161.126c-21.076-10.538-46.705-1.995-57.243 19.081s-1.995 46.705 19.081 57.243l341.333 170.667c12.012 6.006 26.15 6.006 38.162 0l341.333-170.667c21.076-10.538 29.619-36.167 19.081-57.243s-36.167-29.619-57.243-19.081l-322.252 161.126z" />
<glyph unicode="&#xe933;" glyph-name="finance" d="M512 405.333h-21.333c-82.475 0-149.333 66.859-149.333 149.333 0 75.231 55.631 137.469 128 147.821v44.179c0 23.564 19.103 42.667 42.667 42.667s42.667-19.103 42.667-42.667v-42.667h85.333c23.564 0 42.667-19.103 42.667-42.667s-19.103-42.667-42.667-42.667h-149.333c-35.346 0-64-28.654-64-64s28.654-64 64-64h85.333c82.475 0 149.333-66.859 149.333-149.333s-66.859-149.333-149.333-149.333h-21.333v-42.667c0-23.564-19.103-42.667-42.667-42.667s-42.667 19.103-42.667 42.667v42.667h-85.333c-23.564 0-42.667 19.103-42.667 42.667s19.103 42.667 42.667 42.667h192c35.346 0 64 28.654 64 64s-28.654 64-64 64h-64zM512 917.333c258.773 0 469.333-210.56 469.333-469.333s-210.56-469.333-469.333-469.333c-258.773 0-469.333 210.56-469.333 469.333s210.56 469.333 469.333 469.333zM512 64c211.755 0 384 172.245 384 384 0 211.712-172.245 384-384 384s-384-172.288-384-384c0-211.755 172.245-384 384-384z" />
<glyph unicode="&#xe934;" glyph-name="first-page" d="M572.921 448.215l227.376-227.909c14.604-17.061 13.622-42.494-2.254-58.378s-41.298-16.866-58.351-2.255l-257.894 258.010c-16.665 16.772-16.665 43.86 0 60.632l257.894 258.010c17.054 14.611 42.475 13.629 58.351-2.255s16.858-41.316 2.254-58.378l-227.376-227.479zM316.921 448.215l227.376-227.909c14.604-17.061 13.622-42.494-2.254-58.378s-41.298-16.866-58.351-2.255l-257.894 258.010c-16.665 16.772-16.665 43.86 0 60.632l257.894 258.010c17.054 14.611 42.475 13.629 58.351-2.255s16.858-41.316 2.254-58.378l-227.376-227.479z" />
<glyph unicode="&#xe935;" glyph-name="folder" d="M505.936 822.561h367.157c85.362 0 150.907-64.559 150.907-148.637v-503.953c0-84.078-65.545-148.637-150.907-148.637h-722.186c-85.362 0-150.907 64.559-150.907 148.637v641.392c0 84.078 65.545 148.637 150.907 148.637h232.574c15.952 0 32.172-8.702 46.737-23.384l75.717-114.055zM354.098 846h-203.156c-21.628 0-35.131-13.3-35.131-34.603v-656.049c0-21.303 13.503-34.603 35.131-34.603h722.389c21.628 0 35.131 13.3 35.131 34.603l0.035 518.61c0 21.303-13.503 34.603-35.131 34.603h-396.814c-15.952 0-32.172 8.702-46.737 23.384l-75.717 114.055z" />
<glyph unicode="&#xe936;" glyph-name="gift" d="M740.303 755.2h181.297c56.554 0 102.4-45.846 102.4-102.4v-204.8c0-56.554-45.846-102.4-102.4-102.4v-307.2c0-56.554-45.846-102.4-102.4-102.4h-614.4c-56.554 0-102.4 45.846-102.4 102.4v307.2c-56.554 0-102.4 45.846-102.4 102.4v204.8c0 56.554 45.846 102.4 102.4 102.4h181.295c-37.459 52.826-37.888 116.702 3.994 165.229l2.557 2.751 5.294 5.099c23.586 20.356 53.305 31.72 84.032 31.72 41.038 0 79.115-19.607 110.382-53.503 8.048-8.718 15.391-18.022 22.046-27.885 6.652 9.858 13.991 19.157 22.034 27.87 31.28 33.911 69.357 53.517 110.395 53.517 30.727 0 60.446-11.364 86.784-34.277l2.543-2.543 2.557-2.751c41.881-48.525 41.453-112.398 3.992-165.229zM563.2 345.6h-102.4v-307.2h102.4v307.2zM665.6 345.6v-307.2h153.6v307.2h-153.6zM358.4 345.6h-153.6v-307.2h153.6v307.2zM378.918 801.302c18.196-16.783 42.296-28.983 72.27-36.477-7.49 29.947-19.694 54.035-36.49 72.229-13.207 14.318-25.303 20.546-35.127 20.546-5.82 0-11.89-2.321-14.377-4.285l-0.92-0.92c-10.537-13.298-7.79-30.389 14.643-51.092zM644.428 857.6c-9.824 0-21.919-6.228-35.14-20.561-16.786-18.183-28.987-42.269-36.476-72.214 29.974 7.494 54.071 19.692 72.259 36.467 22.215 20.501 25.133 37.454 14.974 50.693-4.876 3.714-10.348 5.615-15.617 5.615zM102.4 652.8v-204.8h819.2v204.8h-819.2z" />
<glyph unicode="&#xe937;" glyph-name="grid" d="M56.889 960h341.333c31.419 0 56.889-25.47 56.889-56.889v-341.333c0-31.419-25.47-56.889-56.889-56.889h-341.333c-31.419 0-56.889 25.47-56.889 56.889v341.333c0 31.419 25.47 56.889 56.889 56.889zM113.778 846.222v-227.556h227.556v227.556h-227.556zM625.778 960h341.333c31.419 0 56.889-25.47 56.889-56.889v-341.333c0-31.419-25.47-56.889-56.889-56.889h-341.333c-31.419 0-56.889 25.47-56.889 56.889v341.333c0 31.419 25.47 56.889 56.889 56.889zM682.667 846.222v-227.556h227.556v227.556h-227.556zM56.889 391.111h341.333c31.419 0 56.889-25.47 56.889-56.889v-341.333c0-31.419-25.47-56.889-56.889-56.889h-341.333c-31.419 0-56.889 25.47-56.889 56.889v341.333c0 31.419 25.47 56.889 56.889 56.889zM113.778 277.333v-227.556h227.556v227.556h-227.556zM625.778 391.111h341.333c31.419 0 56.889-25.47 56.889-56.889v-341.333c0-31.419-25.47-56.889-56.889-56.889h-341.333c-31.419 0-56.889 25.47-56.889 56.889v341.333c0 31.419 25.47 56.889 56.889 56.889zM682.667 277.333v-227.556h227.556v227.556h-227.556z" />
<glyph unicode="&#xe938;" glyph-name="hdd" d="M980.065 535.495c15.494-15.985 27.601-35.343 35.148-56.884l0.083-0.135h-144.896c28.277 0 51.2-23.196 51.2-51.81v-207.238c0-28.614-22.923-51.81-51.2-51.81h-716.8c-28.277 0-51.2 23.196-51.2 51.81v207.238c0 28.614 22.923 51.81 51.2 51.81h716.8zM8.787 478.611c7.546 21.542 19.654 40.899 35.148 56.884l111.72 180.809c28.071 45.431 77.288 73.029 130.238 73.029h452.214c52.95 0 102.167-27.597 130.238-73.029l111.72-180.809z" />
<glyph unicode="&#xe939;" glyph-name="help" d="M512 960c282.298 0 512-229.702 512-512s-229.702-512-512-512c-282.298 0-512 229.702-512 512s229.702 512 512 512zM512 29.091c231.005 0 418.909 187.904 418.909 418.909 0 230.959-187.904 418.909-418.909 418.909s-418.909-187.951-418.909-418.909c0-231.005 187.904-418.909 418.909-418.909zM512 727.273c102.679 0 186.182-83.503 186.182-186.182 0-86.481-59.532-158.767-139.636-179.572v-53.155c0-25.74-20.806-46.545-46.545-46.545s-46.545 20.806-46.545 46.545v93.091c0 25.693 20.806 46.545 46.545 46.545 51.34 0 93.091 41.751 93.091 93.091s-41.751 93.091-93.091 93.091c-51.34 0-93.091-41.751-93.091-93.091 0-25.693-20.806-46.545-46.545-46.545s-46.545 20.852-46.545 46.545c0 102.679 83.503 186.182 186.182 186.182zM512 215.273c25.74 0 46.545-20.806 46.545-46.545s-20.806-46.545-46.545-46.545c-25.74 0-46.545 20.806-46.545 46.545s20.806 46.545 46.545 46.545z" />
<glyph unicode="&#xe93a;" glyph-name="home" d="M1010.811 431.031l-460.677 511.925c-9.71 10.846-23.578 17.044-38.134 17.044s-28.424-6.198-38.134-17.044l-460.677-511.925c-13.601-15.070-17.012-36.754-8.696-55.273s26.788-30.374 47.086-30.218h102.373v-358.347c0-28.273 22.917-51.192 51.186-51.192h204.745c28.269 0 51.186 22.92 51.186 51.192v204.77h102.373v-204.77c0-28.273 22.917-51.192 51.186-51.192h204.745c28.269 0 51.186 22.92 51.186 51.192v358.347h102.373c20.205 0.048 38.491 11.978 46.677 30.453s4.738 40.037-8.799 55.038zM819.374 447.925c-28.269 0-51.186-22.92-51.186-51.192v-358.347h-102.373v204.77c0 28.273-22.917 51.192-51.186 51.192h-204.745c-28.269 0-51.186-22.92-51.186-51.192v-204.77h-102.373v358.347c0 28.273-22.917 51.192-51.186 51.192h-38.39l345.508 384.456 345.508-384.456h-38.39z" />
<glyph unicode="&#xe93b;" glyph-name="info" d="M512 960c282.298 0 512-229.702 512-512s-229.702-512-512-512c-282.298 0-512 229.702-512 512s229.702 512 512 512zM512 29.091c231.005 0 418.909 187.904 418.909 418.909 0 230.959-187.904 418.909-418.909 418.909s-418.909-187.951-418.909-418.909c0-231.005 187.904-418.909 418.909-418.909zM512 587.636c25.706 0 46.545-20.839 46.545-46.545v-325.818c0-25.706-20.839-46.545-46.545-46.545s-46.545 20.839-46.545 46.545v325.818c0 25.706 20.839 46.545 46.545 46.545zM512 727.273c25.74 0 46.545-20.806 46.545-46.545s-20.806-46.545-46.545-46.545c-25.74 0-46.545 20.806-46.545 46.545s20.806 46.545 46.545 46.545z" />
<glyph unicode="&#xe93c;" glyph-name="keyboard" d="M128 746.667h768c70.692 0 128-57.308 128-128v-341.333c0-70.692-57.308-128-128-128h-768c-70.692 0-128 57.308-128 128v341.333c0 70.692 57.308 128 128 128zM128 661.333c-23.564 0-42.667-19.103-42.667-42.667v-341.333c0-23.564 19.103-42.667 42.667-42.667h768c23.564 0 42.667 19.103 42.667 42.667v341.333c0 23.564-19.103 42.667-42.667 42.667h-768zM725.333 490.667h85.333c23.564 0 42.667-19.103 42.667-42.667s-19.103-42.667-42.667-42.667h-85.333c-23.564 0-42.667 19.103-42.667 42.667s19.103 42.667 42.667 42.667zM810.667 618.667c23.564 0 42.667-19.103 42.667-42.667s-19.103-42.667-42.667-42.667c-23.564 0-42.667 19.103-42.667 42.667s19.103 42.667 42.667 42.667zM341.333 533.333c-23.564 0-42.667 19.103-42.667 42.667s19.103 42.667 42.667 42.667c23.564 0 42.667-19.103 42.667-42.667s-19.103-42.667-42.667-42.667zM341.333 405.333c-23.564 0-42.667 19.103-42.667 42.667s19.103 42.667 42.667 42.667c23.564 0 42.667-19.103 42.667-42.667s-19.103-42.667-42.667-42.667zM469.333 533.333c-23.564 0-42.667 19.103-42.667 42.667s19.103 42.667 42.667 42.667c23.564 0 42.667-19.103 42.667-42.667s-19.103-42.667-42.667-42.667zM469.333 405.333c-23.564 0-42.667 19.103-42.667 42.667s19.103 42.667 42.667 42.667c23.564 0 42.667-19.103 42.667-42.667s-19.103-42.667-42.667-42.667zM597.333 533.333c-23.564 0-42.667 19.103-42.667 42.667s19.103 42.667 42.667 42.667c23.564 0 42.667-19.103 42.667-42.667s-19.103-42.667-42.667-42.667zM597.333 405.333c-23.564 0-42.667 19.103-42.667 42.667s19.103 42.667 42.667 42.667c23.564 0 42.667-19.103 42.667-42.667s-19.103-42.667-42.667-42.667zM213.333 533.333c-23.564 0-42.667 19.103-42.667 42.667s19.103 42.667 42.667 42.667c23.564 0 42.667-19.103 42.667-42.667s-19.103-42.667-42.667-42.667zM213.333 405.333c-23.564 0-42.667 19.103-42.667 42.667s19.103 42.667 42.667 42.667c23.564 0 42.667-19.103 42.667-42.667s-19.103-42.667-42.667-42.667zM213.333 277.333c-23.564 0-42.667 19.103-42.667 42.667s19.103 42.667 42.667 42.667c23.564 0 42.667-19.103 42.667-42.667s-19.103-42.667-42.667-42.667zM810.667 277.333c-23.564 0-42.667 19.103-42.667 42.667s19.103 42.667 42.667 42.667c23.564 0 42.667-19.103 42.667-42.667s-19.103-42.667-42.667-42.667zM341.333 362.667h341.333c23.564 0 42.667-19.103 42.667-42.667s-19.103-42.667-42.667-42.667h-341.333c-23.564 0-42.667 19.103-42.667 42.667s19.103 42.667 42.667 42.667z" />
<glyph unicode="&#xe93d;" glyph-name="last-page" d="M846.363 447.631l-389.788 390.701c-25.036 29.248-23.353 72.847 3.864 100.076s70.796 28.913 100.031 3.865l442.104-442.303c28.569-28.752 28.569-75.189 0-103.941l-442.104-442.303c-29.235-25.047-72.814-23.363-100.031 3.865s-28.9 70.828-3.864 100.076l389.788 389.964zM407.506 447.631l-389.788 390.701c-25.036 29.248-23.353 72.847 3.864 100.076s70.796 28.913 100.031 3.865l442.104-442.303c28.569-28.752 28.569-75.189 0-103.941l-442.104-442.303c-29.235-25.047-72.814-23.363-100.031 3.865s-28.9 70.828-3.864 100.076l389.788 389.964z" />
<glyph unicode="&#xe93e;" glyph-name="layers" d="M986.067 376l11.598-6.376c35.113-19.304 35.113-69.277 0-88.581l-460.8-253.333c-15.464-8.501-34.266-8.501-49.73 0l-460.8 253.333c-35.113 19.304-35.113 69.277 0 88.581l11.598 6.376 449.202-246.957c15.464-8.501 34.266-8.501 49.73 0l449.202 246.957zM536.865 825.624l460.8-253.333c35.113-19.304 35.113-69.277 0-88.581l-460.8-253.333c-15.464-8.501-34.266-8.501-49.73 0l-460.8 253.333c-35.113 19.304-35.113 69.277 0 88.581l460.8 253.333c15.464 8.501 34.266 8.501 49.73 0zM512 723.373l-355.373-195.373 355.373-195.373 355.373 195.373-355.373 195.373z" />
<glyph unicode="&#xe93f;" glyph-name="light" d="M722.453 239.156c24.756-6.7 42.987-29.543 42.987-56.692 0-32.409-25.979-58.682-58.027-58.682v0c32.047 0 58.027-21.018 58.027-46.946s-25.979-46.946-58.027-46.946c0-51.855-51.959-93.891-116.053-93.891h-116.053c-64.094 0-116.053 42.036-116.053 93.891-32.047 0-58.027 21.018-58.027 46.946s25.979 46.946 58.027 46.946v0c-32.047 0-58.027 26.273-58.027 58.682 0 27.080 18.138 49.875 42.797 56.64-3.76 26.678-9.315 37.489-24.609 52.656-1.585 1.572-5.492 5.273-13.066 12.397-8.27 7.775-11.518 10.837-13.365 12.623-13.912 13.453-25.5 25.998-36.439 39.539-55.484 66.208-85.878 149.642-85.878 236.966 0 202.532 162.372 366.715 362.667 366.715s362.667-164.183 362.667-366.715c0-86.504-29.796-168.914-84.675-235.55-11.563-14.237-23.164-26.779-37.2-40.342-1.769-1.71-5.075-4.826-13.429-12.684-7.452-7.015-11.49-10.843-13.108-12.451-16.052-15.94-21.591-27.077-25.134-53.102zM606.070 241.146c0.031 0.538 0.058 1.078 0.080 1.619 6.824 60.29 23.514 96.868 60.121 133.221 2.269 2.253 6.65 6.424 13.459 12.842 9.484 8.922 13.022 12.253 14.215 13.406 10.73 10.368 19.215 19.538 27.948 30.288 37.804 45.905 58.054 101.771 58.054 160.763 0 137.719-110.412 249.363-246.613 249.363s-246.613-111.644-246.613-249.363c0-59.561 20.663-116.111 59.014-161.888 8.44-10.437 16.864-19.559 27.459-29.805 1.279-1.237 4.743-4.497 13.914-13.119 7.008-6.601 11.328-10.708 13.567-12.929 36.149-35.849 52.594-71.897 59.867-134.398h145.528z" />
<glyph unicode="&#xe940;" glyph-name="like" d="M455.111 643.556c0 88.989-76.057 161.778-170.667 161.778s-170.667-72.789-170.667-161.778c0-201.755 277.995-510.222 398.222-510.222 120.18 0 398.222 308.573 398.222 510.222 0 88.989-76.057 161.778-170.667 161.778s-170.667-72.789-170.667-161.778c-0.001-0.207 0-0.415 0-0.622 0-30.928-25.47-56-56.889-56s-56.889 25.072-56.889 56c0 0.208 0.001 0.415 0.003 0.622zM739.556 917.333c156.741 0 284.444-122.216 284.444-273.778 0-260.713-325.741-622.222-512-622.222-186.301 0-512 361.4-512 622.222 0 151.562 127.703 273.778 284.444 273.778 92.9 0 175.6-42.934 227.556-109.464 51.956 66.531 134.655 109.464 227.556 109.464z" />
<glyph unicode="&#xe941;" glyph-name="list" d="M284.458 675.665c-31.418 0-56.888 25.445-56.888 56.834s25.47 56.834 56.888 56.834h682.654c31.418 0 56.888-25.445 56.888-56.834s-25.47-56.834-56.888-56.834h-682.654zM967.112 505.164c31.418 0 56.888-25.445 56.888-56.834s-25.47-56.834-56.888-56.834h-682.654c-31.418 0-56.888 25.445-56.888 56.834s25.47 56.834 56.888 56.834h682.654zM967.112 220.994c31.418 0 56.888-25.445 56.888-56.834s-25.47-56.834-56.888-56.834h-682.654c-31.418 0-56.888 25.445-56.888 56.834s25.47 56.834 56.888 56.834h682.654zM16.517 772.522c10.682 10.759 25.222 16.811 40.39 16.811s29.709-6.052 40.39-16.811c10.395-10.891 16.288-25.304 16.498-40.352 0.086-15.107-5.85-29.626-16.498-40.352-10.682-10.759-25.222-16.811-40.39-16.811s-29.709 6.052-40.39 16.811c-10.649 10.726-16.585 25.245-16.498 40.352-0.086 15.107 5.85 29.626 16.498 40.352zM97.298 488.352c5.179-5.405 9.239-11.779 11.946-18.755 2.915-6.833 4.461-14.17 4.551-21.597 0-31.389-25.47-56.834-56.888-56.834s-56.888 25.445-56.888 56.834c-0.214 7.457 1.346 14.859 4.551 21.597 2.708 6.976 6.767 13.35 11.946 18.755 10.682 10.759 25.222 16.811 40.39 16.811s29.709-6.052 40.39-16.811zM16.517 204.182c10.682 10.759 25.222 16.811 40.39 16.811s29.709-6.052 40.39-16.811c10.395-10.891 16.288-25.304 16.497-40.352-0.090-7.427-1.636-14.764-4.551-21.597-2.891-6.882-6.93-13.224-11.946-18.755-10.682-10.759-25.222-16.811-40.39-16.811s-29.709 6.052-40.39 16.811c-5.168 5.528-9.395 11.863-12.515 18.755-2.72 6.872-4.073 14.208-3.982 21.597-0.087 15.107 5.849 29.626 16.497 40.352z" />
<glyph unicode="&#xe942;" glyph-name="lock" d="M744 601.6c83.803 0 152-68.915 152-153.6v-358.4c0-84.685-68.197-153.6-152-153.6h-506.667c-83.803 0-152 68.915-152 153.6v358.4c0 84.685 68.197 153.6 152 153.6v153.6c0 112.947 90.896 204.8 202.667 204.8h101.333c111.771 0 202.667-91.853 202.667-204.8v-153.6zM794.667 89.6v358.4c0 28.211-22.699 51.2-50.667 51.2h-506.667c-27.968 0-50.667-22.989-50.667-51.2v-358.4c0-28.262 22.699-51.2 50.667-51.2h506.667c27.968 0 50.667 22.938 50.667 51.2zM338.667 755.2v-153.6h304v153.6c0 56.474-45.448 102.4-101.333 102.4h-101.333c-55.885 0-101.333-45.926-101.333-102.4zM490.667 345.6c28.019 0 50.667-22.886 50.667-51.2v-51.2c0-28.314-22.648-51.2-50.667-51.2s-50.667 22.886-50.667 51.2v51.2c0 28.314 22.648 51.2 50.667 51.2z" />
<glyph unicode="&#xe943;" glyph-name="mail" d="M926.050 716.188c-7.624 14.905-23.428 25.145-41.687 25.145h-744.727c-18.262 0-34.068-10.243-41.69-25.152l413.925-284.085 414.18 284.093zM930.909 608.626l-386.884-265.37c-19.294-13.234-45.045-13.23-64.334 0.009l-386.6 265.332v-365.93c0-25.037 20.839-45.333 46.545-45.333h744.727c25.706 0 46.545 20.296 46.545 45.333v365.96zM139.636 832h744.727c77.119 0 139.636-60.889 139.636-136v-453.333c0-75.111-62.517-136-139.636-136h-744.727c-77.119 0-139.636 60.889-139.636 136v453.333c0 75.111 62.517 136 139.636 136z" />
<glyph unicode="&#xe944;" glyph-name="map" d="M358.4 776.045l289.607 95.521c5.544 2.021 11.486 3.11 17.593 3.101 6.107 0.009 12.049-1.080 17.593-3.101l305.798-100.861c20.907-6.896 35.009-26.256 35.009-48.062v-607.942c0-34.58-34.237-58.997-67.391-48.062l-291.009 95.983-289.607-95.521c-5.544-2.021-11.486-3.11-17.593-3.101-6.107-0.009-12.049 1.080-17.593 3.101l-305.798 100.861c-20.907 6.896-35.009 26.256-35.009 48.062v607.942c0 34.58 34.237 58.997 67.391 48.062l291.009-95.983zM307.2 686.127l-204.8 67.549v-501.137l204.8-67.549v501.137zM716.8 252.539l204.8-67.549v501.137l-204.8 67.549v-501.137zM409.6 184.99l204.8 67.549v501.137l-204.8-67.549v-501.137z" />
<glyph unicode="&#xe945;" glyph-name="menu" d="M64 704h896c35.346 0 64 28.654 64 64s-28.654 64-64 64h-896c-35.346 0-64-28.654-64-64s28.654-64 64-64zM960 512h-896c-35.346 0-64-28.654-64-64s28.654-64 64-64h896c35.346 0 64 28.654 64 64s-28.654 64-64 64zM960 192h-896c-35.346 0-64-28.654-64-64s28.654-64 64-64h896c35.346 0 64 28.654 64 64s-28.654 64-64 64z" />
<glyph unicode="&#xe946;" glyph-name="message" d="M810.667 832h-597.333c-70.692 0-128-57.308-128-128v-384c0-70.692 57.308-128 128-128h42.667v-85.333c0-16.161 9.131-30.935 23.586-38.162s31.752-5.668 44.681 4.029l159.147 119.467h327.253c70.692 0 128 57.308 128 128v384c0 70.692-57.308 128-128 128zM853.333 320c0-23.564-19.103-42.667-42.667-42.667h-341.333c-9.232 0-18.215-2.994-25.6-8.533l-102.4-76.8v42.667c0 23.564-19.103 42.667-42.667 42.667h-85.333c-23.564 0-42.667 19.103-42.667 42.667v384c0 23.564 19.103 42.667 42.667 42.667h597.333c23.564 0 42.667-19.103 42.667-42.667v-384z" />
<glyph unicode="&#xe947;" glyph-name="microphone" d="M853.333 362.667c0-188.513-152.82-341.333-341.333-341.333s-341.333 152.82-341.333 341.333v85.333c0 23.564 19.103 42.667 42.667 42.667s42.667-19.103 42.667-42.667v-85.333c0-141.385 114.615-256 256-256s256 114.615 256 256v85.333c0 23.564 19.103 42.667 42.667 42.667s42.667-19.103 42.667-42.667v-85.333zM512 874.667c94.257 0 170.667-76.41 170.667-170.667v-341.333c0-94.257-76.41-170.667-170.667-170.667s-170.667 76.41-170.667 170.667v341.333c0 94.257 76.41 170.667 170.667 170.667zM512 789.333c-47.128 0-85.333-38.205-85.333-85.333v-341.333c0-47.128 38.205-85.333 85.333-85.333s85.333 38.205 85.333 85.333v341.333c0 47.128-38.205 85.333-85.333 85.333z" />
<glyph unicode="&#xe948;" glyph-name="minus-circle" d="M512-64c-282.77 0-512 229.23-512 512s229.23 512 512 512c282.77 0 512-229.23 512-512s-229.23-512-512-512zM256 499.2c-28.277 0-51.2-22.923-51.2-51.2s22.923-51.2 51.2-51.2h512c28.277 0 51.2 22.923 51.2 51.2s-22.923 51.2-51.2 51.2h-512z" />
<glyph unicode="&#xe949;" glyph-name="minus" d="M85.333 533.333h853.333c47.128 0 85.333-38.205 85.333-85.333s-38.205-85.333-85.333-85.333h-853.333c-47.128 0-85.333 38.205-85.333 85.333s38.205 85.333 85.333 85.333z" />
<glyph unicode="&#xe94a;" glyph-name="money" d="M837.818 284.444c0 51.056 41.678 92.444 93.091 92.444v184.889c-51.413 0-93.091 41.389-93.091 92.444h-651.636c0-51.056-41.678-92.444-93.091-92.444v-184.889c51.413 0 93.091-41.389 93.091-92.444h651.636zM93.091 746.667h837.818c51.413 0 93.091-41.678 93.091-93.091v-368.485c0-51.413-41.678-93.091-93.091-93.091h-837.818c-51.413 0-93.091 41.678-93.091 93.091v368.485c0 51.413 41.678 93.091 93.091 93.091zM744.727 423.111c-25.706 0-46.545 20.694-46.545 46.222s20.839 46.222 46.545 46.222c25.706 0 46.545-20.694 46.545-46.222s-20.839-46.222-46.545-46.222zM279.273 423.111c-25.706 0-46.545 20.694-46.545 46.222s20.839 46.222 46.545 46.222c25.706 0 46.545-20.694 46.545-46.222s-20.839-46.222-46.545-46.222zM512 330.667c-51.413 0-93.091 62.083-93.091 138.667s41.678 138.667 93.091 138.667c51.413 0 93.091-62.083 93.091-138.667s-41.678-138.667-93.091-138.667z" />
<glyph unicode="&#xe94b;" glyph-name="more-vert" d="M384 832c0 70.692 57.308 128 128 128s128-57.308 128-128c0-70.692-57.308-128-128-128s-128 57.308-128 128zM384 448c0 70.692 57.308 128 128 128s128-57.308 128-128c0-70.692-57.308-128-128-128s-128 57.308-128 128zM384 64c0 70.692 57.308 128 128 128s128-57.308 128-128c0-70.692-57.308-128-128-128s-128 57.308-128 128z" />
<glyph unicode="&#xe94c;" glyph-name="more" d="M128 320c-70.692 0-128 57.308-128 128s57.308 128 128 128c70.692 0 128-57.308 128-128s-57.308-128-128-128zM512 320c-70.692 0-128 57.308-128 128s57.308 128 128 128c70.692 0 128-57.308 128-128s-57.308-128-128-128zM896 320c-70.692 0-128 57.308-128 128s57.308 128 128 128c70.692 0 128-57.308 128-128s-57.308-128-128-128z" />
<glyph unicode="&#xe94d;" glyph-name="news" d="M170.667 21.333c-94.257 0-170.667 76.41-170.667 170.667v213.333h256v426.667c0 23.564 19.103 42.667 42.667 42.667h682.667c23.564 0 42.667-19.103 42.667-42.667v-640c0-94.257-76.41-170.667-170.667-170.667h-682.667zM318.501 106.667h534.832c47.128 0 85.333 38.205 85.333 85.333v597.333h-597.333v-597.333c0-31.086-8.311-60.231-22.832-85.333zM85.333 320v-128c0-47.128 38.205-85.333 85.333-85.333s85.333 38.205 85.333 85.333v128h-170.667zM853.333 533.333v-213.333h-213.333v213.333h213.333zM768 448h-42.667v-42.667h42.667v42.667zM426.667 704h426.667v-85.333h-426.667v85.333zM426.667 533.333h170.667v-85.333h-170.667v85.333zM426.667 405.333h170.667v-85.333h-170.667v85.333zM426.667 277.333h170.667v-85.333h-170.667v85.333zM640 277.333h213.333v-85.333h-213.333v85.333z" />
<glyph unicode="&#xe94e;" glyph-name="notification" d="M512-64c-57.572 0-104.296 45.875-104.296 102.4h208.593c0-56.525-46.725-102.4-104.296-102.4zM929.185 192c28.838 0 52.148-22.886 52.148-51.2s-23.31-51.2-52.148-51.2h-834.37c-28.838 0-52.148 22.886-52.148 51.2s23.31 51.2 52.148 51.2h52.148v307.2c0 162.048 110.137 299.11 260.741 343.296v15.104c0 56.32 46.933 102.4 104.296 102.4s104.296-46.080 104.296-102.4v-15.104c150.604-44.186 260.741-181.248 260.741-343.296v-307.2h52.148zM251.259 192h521.481v307.2c0 141.158-116.968 256-260.741 256s-260.741-114.842-260.741-256v-307.2z" />
<glyph unicode="&#xe94f;" glyph-name="off-line" d="M670.165 350.165c16.683-16.683 16.683-43.648 0-60.331l-97.835-97.835 97.835-97.835c16.683-16.683 16.683-43.648 0-60.331-8.32-8.32-19.243-12.501-30.165-12.501s-21.845 4.181-30.165 12.501l-97.835 97.835-97.835-97.835c-8.32-8.32-19.243-12.501-30.165-12.501s-21.845 4.181-30.165 12.501c-16.683 16.683-16.683 43.648 0 60.331l97.835 97.835-97.835 97.835c-16.683 16.683-16.683 43.648 0 60.331s43.648 16.683 60.331 0l97.835-97.835 97.835 97.835c16.683 16.683 43.648 16.683 60.331 0zM848.457 594.581c80.469-38.784 132.864-120.363 132.864-210.603 0-129.365-105.301-234.667-234.667-234.667-23.552 0-42.667 19.115-42.667 42.667 0 23.595 19.115 42.667 42.667 42.667 82.347 0 149.333 67.029 149.333 149.333 0 62.933-40.32 119.296-100.395 140.288l-26.624 9.301-1.877 28.117c-3.712 55.893-50.176 99.627-105.771 99.627-9.301 0-19.2-1.707-31.147-5.376l-35.371-10.837-15.744 33.536c-31.573 67.243-99.755 110.677-173.739 110.677-105.856 0-192-86.101-192-192 0-13.525 1.536-27.52 4.651-41.515l6.443-29.44-25.6-15.915c-44.331-27.648-70.827-74.923-70.827-126.464 0-82.304 67.029-149.333 149.333-149.333 23.595 0 42.667-19.072 42.667-42.667 0-23.552-19.072-42.667-42.667-42.667-129.365 0-234.667 105.301-234.667 234.667 0 71.424 32.128 137.557 87.168 181.931-1.195 10.539-1.835 21.035-1.835 31.403 0 152.917 124.416 277.333 277.333 277.333 95.317 0 183.936-49.835 234.325-129.408 101.248 13.269 188.843-56.619 208.811-150.656z" />
<glyph unicode="&#xe950;" glyph-name="ok" d="M1002.641 810.89c-28.649 28.147-74.917 28.147-103.566 0l-536.193-529.939-241.654 239.562c-29.142 24.666-72.584 23.008-99.714-3.807s-28.809-69.749-3.852-98.552l293.804-290.378c28.649-28.147 74.917-28.147 103.566 0l587.609 580.755c28.479 28.315 28.479 74.044 0 102.358z" />
<glyph unicode="&#xe951;" glyph-name="paste" d="M772.741 243.2h52.148c28.801 0 52.148 22.923 52.148 51.2v512c0 28.277-23.348 51.2-52.148 51.2h-417.185c-28.801 0-52.148-22.923-52.148-51.2v-153.6h-156.444c-28.801 0-52.148-22.923-52.148-51.2v-204.8h-104.296v204.8c0 84.831 70.043 153.6 156.444 153.6h52.148v51.2c0 84.831 70.043 153.6 156.444 153.6h417.185c86.402 0 156.444-68.769 156.444-153.6v-512c0-84.831-70.043-153.6-156.444-153.6h-52.148v-51.2c0-84.831-70.043-153.6-156.444-153.6h-156.444v102.4h156.444c28.801 0 52.148 22.923 52.148 51.2v204.8h64.182c13.601 0 26.991 0.058 40.114 0.169v-51.369zM459.852 755.2h156.444c86.402 0 156.444-68.769 156.444-153.6v-204.969c-13.123 0.112-26.513 0.169-40.114 0.169h-64.182v204.8c0 28.277-23.348 51.2-52.148 51.2h-156.444v102.4zM355.556-64h-156.444c-86.402 0-156.444 68.769-156.444 153.6v204.8h104.296v-204.8c0-28.277 23.348-51.2 52.148-51.2h156.444v-102.4z" />
<glyph unicode="&#xe952;" glyph-name="picture" d="M896 259.66l-213.333 213.333-195.66-195.66 97.83-97.83c16.662-16.662 16.662-43.677 0-60.34s-43.677-16.662-60.34 0l-225.83 225.83-170.667-170.667v-67.66c0-23.564 19.103-42.667 42.667-42.667h682.667c23.564 0 42.667 19.103 42.667 42.667v152.994zM896 380.34v408.994c0 23.564-19.103 42.667-42.667 42.667h-682.667c-23.564 0-42.667-19.103-42.667-42.667v-494.327l140.497 140.497c16.662 16.662 43.677 16.662 60.34 0l97.83-97.83 225.83 225.83c16.662 16.662 43.677 16.662 60.34 0l183.163-183.163zM170.667 917.333h682.667c70.692 0 128-57.308 128-128v-682.667c0-70.692-57.308-128-128-128h-682.667c-70.692 0-128 57.308-128 128v682.667c0 70.692 57.308 128 128 128zM341.333 533.333c-47.128 0-85.333 38.205-85.333 85.333s38.205 85.333 85.333 85.333c47.128 0 85.333-38.205 85.333-85.333s-38.205-85.333-85.333-85.333z" />
<glyph unicode="&#xe953;" glyph-name="pin-filled" d="M544.69-51.185c-18.308-17.087-47.072-17.087-65.38 0-261.651 244.201-393.977 439.34-393.977 592.944 0 230.988 191.025 418.241 426.667 418.241s426.667-187.253 426.667-418.241c0-153.605-132.326-348.743-393.977-592.944z" />
<glyph unicode="&#xe954;" glyph-name="pin" d="M544.69-51.185c-18.308-17.087-47.072-17.087-65.38 0-261.651 244.201-393.977 439.34-393.977 592.944 0 230.988 191.025 418.241 426.667 418.241s426.667-187.253 426.667-418.241c0-153.605-132.326-348.743-393.977-592.944zM843.852 541.759c0 179.657-148.575 325.298-331.852 325.298s-331.852-145.641-331.852-325.298c0-114.666 109.748-281.752 331.852-494.714 222.104 212.962 331.852 380.048 331.852 494.714zM512 354.909c-104.73 0-189.63 83.356-189.63 186.182s84.9 186.182 189.63 186.182c104.73 0 189.63-83.356 189.63-186.182s-84.9-186.182-189.63-186.182zM512 448c52.365 0 94.815 41.678 94.815 93.091s-42.45 93.091-94.815 93.091c-52.365 0-94.815-41.678-94.815-93.091s42.45-93.091 94.815-93.091z" />
<glyph unicode="&#xe955;" glyph-name="plus-circle" d="M512 21.333c-235.641 0-426.667 191.025-426.667 426.667s191.025 426.667 426.667 426.667c235.641 0 426.667-191.025 426.667-426.667s-191.025-426.667-426.667-426.667zM725.333 490.667h-170.667v170.667c0 23.552-19.115 42.667-42.667 42.667s-42.667-19.115-42.667-42.667v-170.667h-170.667c-23.552 0-42.667-19.115-42.667-42.667s19.115-42.667 42.667-42.667h170.667v-170.667c0-23.595 19.115-42.667 42.667-42.667s42.667 19.072 42.667 42.667v170.667h170.667c23.595 0 42.667 19.115 42.667 42.667s-19.072 42.667-42.667 42.667z" />
<glyph unicode="&#xe956;" glyph-name="plus" d="M938.667 533.333h-341.333v341.333c0 47.104-38.229 85.333-85.333 85.333s-85.333-38.229-85.333-85.333v-341.333h-341.333c-47.104 0-85.333-38.229-85.333-85.333s38.229-85.333 85.333-85.333h341.333v-341.333c0-47.189 38.229-85.333 85.333-85.333s85.333 38.144 85.333 85.333v341.333h341.333c47.189 0 85.333 38.229 85.333 85.333s-38.144 85.333-85.333 85.333z" />
<glyph unicode="&#xe957;" glyph-name="qr-code" d="M568.889 391.111h227.556v-113.778h113.778v113.778h113.778v-227.556h-341.333v-113.778h113.778v-113.778h-227.556v455.111zM910.222 49.778h113.778v-113.778h-113.778v113.778zM0 960h455.111v-455.111h-455.111v455.111zM113.778 846.222v-227.556h227.556v227.556h-227.556zM170.667 789.333h113.778v-113.778h-113.778v113.778zM568.889 960h455.111v-455.111h-455.111v455.111zM682.667 846.222v-227.556h227.556v227.556h-227.556zM739.556 789.333h113.778v-113.778h-113.778v113.778zM0 391.111h455.111v-455.111h-455.111v455.111zM113.778 277.333v-227.556h227.556v227.556h-227.556zM170.667 220.444h113.778v-113.778h-113.778v113.778z" />
<glyph unicode="&#xe958;" glyph-name="refresh" d="M214.244 472.083c-6.95-85.897 23.378-172.11 86.539-235.272 116.637-116.637 305.742-116.637 422.378 0 16.662 16.662 43.677 16.662 60.34 0s16.662-43.677 0-60.34c-149.961-149.961-393.097-149.961-543.058 0-79.924 79.924-118.96 188.638-111.638 297.328l-55.969-55.969c-16.662-16.662-43.677-16.662-60.34 0s-16.662 43.677 0 60.34l128 128c16.662 16.662 43.677 16.662 60.34 0l128-128c16.662-16.662 16.662-43.677 0-60.34s-43.677-16.662-60.34 0l-54.253 54.253zM809.756 423.917c6.95 85.897-23.378 172.11-86.539 235.272-116.637 116.637-305.742 116.637-422.378 0-16.662-16.662-43.677-16.662-60.34 0s-16.662 43.677 0 60.34c149.961 149.961 393.097 149.961 543.058 0 79.924-79.924 118.96-188.638 111.638-297.328l55.969 55.969c16.662 16.662 43.677 16.662 60.34 0s16.662-43.677 0-60.34l-128-128c-16.662-16.662-43.677-16.662-60.34 0l-128 128c-16.662 16.662-16.662 43.677 0 60.34s43.677 16.662 60.34 0l54.253-54.253z" />
<glyph unicode="&#xe959;" glyph-name="sale" d="M82.33-1.105c-37.825-18.913-82.33 8.593-82.33 50.883v853.333c0 31.419 25.47 56.889 56.889 56.889h910.222c31.419 0 56.889-25.47 56.889-56.889v-853.333c0-42.29-44.505-69.796-82.33-50.883l-84.249 42.125-143.197-95.465c-19.109-12.739-44.004-12.739-63.113 0l-139.11 92.74-139.11-92.74c-19.109-12.739-44.004-12.739-63.113 0l-143.197 95.465-84.249-42.125zM910.222 846.222h-796.444v-704.396l31.447 15.724c18.26 9.13 40.011 7.776 56.998-3.549l139.11-92.74 139.11 92.74c19.109 12.739 44.004 12.739 63.113 0l139.11-92.74 139.11 92.74c16.986 11.324 38.738 12.678 56.998 3.549l31.447-15.724v704.396zM284.444 675.556h455.111c31.419 0 56.889-25.47 56.889-56.889s-25.47-56.889-56.889-56.889h-455.111c-31.419 0-56.889 25.47-56.889 56.889s25.47 56.889 56.889 56.889zM284.444 448h227.556c31.419 0 56.889-25.47 56.889-56.889s-25.47-56.889-56.889-56.889h-227.556c-31.419 0-56.889 25.47-56.889 56.889s25.47 56.889 56.889 56.889zM739.556 448c31.419 0 56.889-25.47 56.889-56.889s-25.47-56.889-56.889-56.889c-31.419 0-56.889 25.47-56.889 56.889s25.47 56.889 56.889 56.889z" />
<glyph unicode="&#xe95a;" glyph-name="search" d="M1008.986 23.398c20.019-20.019 20.019-52.378 0-72.397-9.984-9.984-23.091-15.002-36.198-15.002s-26.214 5.018-36.198 15.002l-276.272 276.224c-69.324-53.914-156.209-86.426-250.723-86.426-225.84 0-409.595 183.757-409.595 409.6s183.755 409.6 409.595 409.6c225.84 0 409.595-183.757 409.595-409.6 0-94.515-32.512-181.402-86.425-250.726l276.221-276.275zM102.399 550.4c0-169.421 137.777-307.2 307.196-307.2s307.196 137.779 307.196 307.2c0 169.421-137.777 307.2-307.196 307.2s-307.196-137.779-307.196-307.2z" />
<glyph unicode="&#xe95b;" glyph-name="server" d="M984.889 426.667c24.322-27.498 39.111-63.811 39.111-103.619v-103.619c0-85.841-68.769-155.429-153.6-155.429h-716.8c-84.831 0-153.6 69.588-153.6 155.429v103.619c0 39.808 14.789 76.121 39.111 103.619-24.322 27.498-39.111 63.811-39.111 103.619v103.619c0 85.841 68.769 155.429 153.6 155.429h716.8c84.831 0 153.6-69.588 153.6-155.429v-103.619c0-39.808-14.789-76.121-39.111-103.619zM870.4 478.476c28.277 0 51.2 23.196 51.2 51.81v103.619c0 28.614-22.923 51.81-51.2 51.81h-716.8c-28.277 0-51.2-23.196-51.2-51.81v-103.619c0-28.614 22.923-51.81 51.2-51.81h716.8zM614.4 530.286c-28.277 0-51.2 23.196-51.2 51.81s22.923 51.81 51.2 51.81c28.277 0 51.2-23.196 51.2-51.81s-22.923-51.81-51.2-51.81zM768 530.286c-28.277 0-51.2 23.196-51.2 51.81s22.923 51.81 51.2 51.81c28.277 0 51.2-23.196 51.2-51.81s-22.923-51.81-51.2-51.81zM153.6 374.857c-28.277 0-51.2-23.196-51.2-51.81v-103.619c0-28.614 22.923-51.81 51.2-51.81h716.8c28.277 0 51.2 23.196 51.2 51.81v103.619c0 28.614-22.923 51.81-51.2 51.81h-716.8zM614.4 219.429c-28.277 0-51.2 23.196-51.2 51.81s22.923 51.81 51.2 51.81c28.277 0 51.2-23.196 51.2-51.81s-22.923-51.81-51.2-51.81zM768 219.429c-28.277 0-51.2 23.196-51.2 51.81s22.923 51.81 51.2 51.81c28.277 0 51.2-23.196 51.2-51.81s-22.923-51.81-51.2-51.81z" />
<glyph unicode="&#xe95c;" glyph-name="settings" d="M976.535 401.455l-84.799 46.545 84.799 46.545c45.223 25.736 60.697 82.591 34.583 127.069l-94.747 161.047c-11.935 21.976-32.336 38.336-56.641 45.422s-50.486 4.305-72.689-7.72l-84.799-49.804v96.349c0 51.413-42.42 93.091-94.747 93.091h-189.495c-52.328 0-94.747-41.678-94.747-93.091v-96.349l-84.799 49.804c-45.27 25.657-103.136 10.455-129.33-33.978l-94.747-161.047c-13.774-21.679-17.871-47.967-11.331-72.702s23.142-45.74 45.913-58.091l84.799-46.545-84.799-46.545c-45.223-25.736-60.697-82.591-34.583-127.069l94.747-161.513c12.017-21.896 32.454-38.156 56.751-45.151s50.434-4.145 72.579 7.915l84.799 46.545v-93.091c0-51.413 42.42-93.091 94.747-93.091h189.495c52.328 0 94.747 41.678 94.747 93.091v96.349l84.799-46.545c45.27-25.657 103.136-10.455 129.33 33.978l94.747 161.047c12.692 21.403 16.179 46.894 9.688 70.83s-22.423 44.343-44.271 56.705zM834.414 159.418l-157.755 89.367-24.161-15.36-19.423-11.171-25.582-13.033v-180.131h-189.495v179.2l-25.582 13.033-21.792 11.171-24.161 15.36-155.386-89.833-94.747 161.047 157.755 89.833v78.196l-157.755 89.833 94.747 161.047 157.755-89.367 21.792 15.36 19.423 11.171 27.95 13.033v178.735h189.495v-178.735l25.582-13.033 19.423-11.171 24.161-15.36 157.755 89.367 94.747-161.047-157.755-89.367v-78.196l157.755-89.833-94.747-160.116zM512.746 634.182c-104.655 0-189.495-83.356-189.495-186.182s84.84-186.182 189.495-186.182c104.655 0 189.495 83.356 189.495 186.182 0 49.378-19.965 96.735-55.502 131.65s-83.736 54.531-133.993 54.531zM512.746 354.909c-52.328 0-94.747 41.678-94.747 93.091s42.42 93.091 94.747 93.091c52.328 0 94.747-41.678 94.747-93.091s-42.42-93.091-94.747-93.091z" />
<glyph unicode="&#xe95d;" glyph-name="share" d="M768.084 363.601c-49.092-0.278-95.681-21.795-127.836-59.041l-216.895 108.67c5.165 23.534 5.165 47.914 0 71.448l216.895 109.098c56.242-63.213 150.489-74.664 220.125-26.745s93.002 140.303 54.573 215.775c-38.429 75.471-126.699 110.554-206.165 81.94s-125.411-112.024-107.309-194.815l-216.895-108.67c-46.607 53.983-121.709 73.218-188.375 48.245s-110.868-88.897-110.868-160.338c0-71.441 44.201-135.366 110.868-160.338s141.769-5.738 188.375 48.245l216.895-109.098c-14.983-70.919 16.167-143.621 77.752-181.47s140.24-32.63 196.329 13.027c56.089 45.656 77.439 121.842 53.291 190.165s-88.553 113.955-160.759 113.902v0zM768.084 791.434c42.054 0.338 78.066-30.174 84.805-71.852s-17.81-82.062-57.81-95.098c-40-13.036-83.492 5.172-102.418 42.879v0 0c-6.232 11.885-9.589 25.076-9.801 38.505 0 47.257 38.156 85.567 85.224 85.567zM256.741 363.601c-42.054-0.338-78.066 30.174-84.805 71.852s17.81 82.062 57.81 95.098c40 13.036 83.492-5.172 102.418-42.879v0 0c11.773-23.407 11.773-51.036 0-74.443v0 0c-13.651-29.636-42.91-48.889-75.423-49.629zM768.084 106.9c-47.068 0-85.224 38.31-85.224 85.567 0.075 12.749 2.987 25.32 8.522 36.794v0 0c18.163 38.288 61.519 57.442 101.906 45.020s65.617-52.672 59.303-94.605c-6.314-41.933-42.268-72.895-84.507-72.775z" />
<glyph unicode="&#xe95e;" glyph-name="signal" d="M512 405.333c-23.564 0-42.667 19.103-42.667 42.667s19.103 42.667 42.667 42.667c23.564 0 42.667-19.103 42.667-42.667s-19.103-42.667-42.667-42.667zM701.328 732.062c-19.595 13.089-24.868 39.584-11.779 59.179s39.584 24.868 59.179 11.779c117.73-78.643 189.939-210.736 189.939-355.020s-72.209-276.377-189.939-355.020c-19.595-13.089-46.090-7.815-59.179 11.779s-7.815 46.090 11.779 59.179c94.272 62.973 152.006 168.586 152.006 284.062s-57.734 221.089-152.006 284.062zM322.672 163.938c19.595-13.089 24.868-39.584 11.779-59.179s-39.584-24.868-59.179-11.779c-117.73 78.643-189.939 210.736-189.939 355.020s72.209 276.377 189.939 355.020c19.595 13.089 46.090 7.815 59.179-11.779s7.815-46.090-11.779-59.179c-94.272-62.973-152.006-168.586-152.006-284.062s57.734-221.089 152.006-284.062zM417.351 305.956c19.595-13.089 24.868-39.584 11.779-59.179s-39.584-24.868-59.179-11.779c-70.619 47.173-113.952 126.442-113.952 213.002s43.333 165.829 113.952 213.002c19.595 13.089 46.090 7.815 59.179-11.779s7.815-46.090-11.779-59.179c-47.161-31.503-76.018-84.292-76.018-142.044s28.857-110.541 76.018-142.044zM606.649 590.044c-19.595 13.089-24.868 39.584-11.779 59.179s39.584 24.868 59.179 11.779c75.483-50.422 113.952-116.526 113.952-213.002s-38.469-162.58-113.952-213.002c-19.595-13.089-46.090-7.815-59.179 11.779s-7.815 46.090 11.779 59.179c52.672 35.184 76.018 75.302 76.018 142.044s-23.346 106.859-76.018 142.044z" />
<glyph unicode="&#xe95f;" glyph-name="social-dropbox" d="M512.517 637.673l-170.667-108.994 170.667-108.994-170.667-108.994-171.184 110.028 171.055 108.994-171.055 107.96 171.055 108.994 170.796-108.994zM340.816 276.428l170.667 108.994 170.667-108.994-170.667-108.994-170.667 108.994zM512.517 420.719l170.667 108.994-170.667 108.089 169.762 108.865 171.055-108.994-171.055-108.994 171.055-108.865-171.055-108.994-169.762 109.899z" />
<glyph unicode="&#xe960;" glyph-name="social-facebook" d="M853.333 751.695v-607.238c0-20.876-16.914-37.638-37.638-37.638h-174.019v264.229h88.686l13.257 103.010h-102.095v65.829c0 29.867 8.229 50.133 51.048 50.133h54.552v92.19c-9.448 1.219-41.752 4.114-79.543 4.114-78.629 0-132.571-48-132.571-136.229v-76.038h-88.99v-103.010h88.99v-264.381h-326.705c-20.724 0-37.638 16.914-37.638 37.638v607.39c0 20.724 16.914 37.638 37.638 37.638h607.238c20.876 0 37.79-16.914 37.79-37.638z" />
<glyph unicode="&#xe961;" glyph-name="social-fluig" d="M416.237 427.299c3.26 1.863 5.122 0.466 5.122-0.931-5.122-40.512 11.641-85.68 54.947-122.466 18.626-15.832 40.046-28.405 62.397-37.252 2.794-0.931 1.397-2.328 0.466-2.794-9.313-7.916-19.557-14.435-30.267-19.557-108.031-49.359-243.535 44.237-166.237 132.245 17.695 20.489 71.71 49.825 73.573 50.756zM318.45 460.826c23.283 41.443 52.153 66.588 76.832 67.054 5.588 0 11.176-0.931 16.298-3.725 13.97-6.985 21.42-20.954 21.886-36.321s-3.725-38.183-4.191-39.58c-0.466-1.397-1.397-4.191-4.657-6.053-2.328-1.397-6.985-4.191-6.985-4.191-4.191-2.794-70.313-41.909-86.145-57.741-18.626-18.626-23.748-34.924-24.214-50.29 0-2.794-2.328-3.725-3.26-0.466-0.931 3.725-1.863 7.45-2.794 12.573-0.931 6.519-11.176 67.519 17.229 118.741zM639.284 253.146c3.26 0.466 7.45 0 3.26-5.122-0.931-1.397-2.328-2.328-3.26-3.26-0.931-0.466-1.397-1.397-2.328-1.863-0.466-0.466-0.931-0.931-1.397-1.397l-0.466-0.466c-0.931-0.931-1.863-1.863-2.794-2.794-2.328-2.328-4.657-3.725-6.985-5.588-2.794-1.863-5.122-3.725-7.45-5.588-0.466 0-0.931-0.466-1.397-0.931l-0.931-0.466c-1.863-1.397-3.26-2.328-5.122-3.725-0.931-0.466-1.397-0.931-2.328-1.397l-0.466-0.466c-1.397-0.931-3.26-1.863-4.657-2.794s-2.794-1.397-4.191-2.328c-1.397-0.931-3.26-1.863-4.657-2.794l-0.931-0.466c-0.466-0.466-1.397-0.466-1.863-0.931-2.328-0.931-4.191-2.328-6.519-3.26l-1.863-0.931c-0.931-0.466-2.328-0.931-3.26-1.397l-1.863-0.931c-2.794-1.397-5.122-2.328-7.916-3.26l-1.397-0.466c-0.931 0-1.863-0.466-2.794-0.931l-2.794-0.931c-2.328-0.931-4.657-1.397-6.985-2.328l-1.397-0.466c-0.931-0.466-2.328-0.466-3.26-0.931s-2.328-0.466-3.26-0.931c-1.397-0.466-3.26-0.931-4.657-1.397-0.931-0.466-2.328-0.466-3.26-0.931-1.863-0.466-3.26-0.466-5.122-0.931-0.931 0-2.328-0.466-3.26-0.466-1.397-0.466-3.26-0.466-4.657-0.931l-9.779-1.397c-0.466-0.466-1.397-0.466-2.328-0.466h-1.397c-1.397-0.466-3.26-0.466-4.657-0.466h-2.794c-6.053-0.466-12.107-0.466-20.023 0h-0.466c-0.931 0-1.397 0-2.328 0-1.397 0-2.328 0.466-3.725 0.466l-3.26 0.466c-0.931 0.466-1.863 0.466-2.794 0.466h-1.397c-3.26 0.466-6.053 0.931-9.779 1.397l-1.863 0.466c-3.725 0.466-6.985 1.397-10.71 2.328l-1.397 0.466c-3.26 0.466-6.053 1.397-8.847 2.328h-0.931c-2.328 0.931-5.122 1.863-7.916 2.794-0.931 0.466-1.397 0.466-2.328 0.931h-0.466c-1.863 0.466-3.26 1.397-5.122 1.863l-0.931 0.466c-0.931 0-1.863 0.466-2.794 0.931-2.328 1.397-4.657 2.328-6.985 3.26h-0.466c-0.466 0.466-0.931 0.466-1.397 0.931-2.328 0.931-4.191 2.328-6.519 3.26l-3.725 1.863c-1.863 0.466-3.26 1.397-4.657 2.328-0.931 0.466-1.397 0.931-2.328 1.397-1.863 1.397-3.725 2.328-5.588 3.725l-2.328 1.397c-2.328 1.397-4.191 2.794-6.053 4.191-0.931 0-1.397 0.466-1.863 0.931-1.397 1.397-3.26 2.328-4.657 3.725l-0.931 0.931c-0.466 0.466-0.466 0.466-0.931 0.931l-2.328 1.863c-1.397 1.397-2.794 2.328-4.191 3.725l-6.519 6.053c-1.397 0.931-0.466 1.863 1.397 0.931 37.252-20.954 72.176-22.817 82.886-22.817 2.794 0 4.191 0 4.191 0 2.794 0 5.122 0 7.916 0 0.466 0 0.931 0 1.397 0h1.863c1.397 0 2.794 0.466 4.191 0.466 0.466 0.466 1.397 0.466 1.863 0.466l1.863 0.466c1.397 0 2.794 0.466 3.725 0.466s1.397 0.466 2.328 0.466l1.863 0.466c0.931 0 2.328 0.466 3.26 0.466s1.863 0.466 2.794 0.466l1.397 0.466c1.397 0 2.328 0 3.26 0.466s1.863 0.466 2.794 0.931l1.397 0.466c0.931 0.466 1.863 0.466 2.794 0.931s2.328 0.466 3.26 0.931l0.931 0.466c1.397 0.466 2.328 0.466 3.26 0.931s2.328 0.931 3.725 1.397c0.931 0.466 1.863 0.931 2.794 1.397 1.397 0.466 2.328 0.931 3.725 1.397 0.931 0.466 1.863 0.931 2.794 1.397 1.397 0.466 2.328 1.397 3.725 1.863 0.931 0.466 1.863 0.931 2.794 1.397 1.397 0.466 2.328 1.397 3.725 1.863 0.931 0.466 1.863 0.931 2.794 1.397 1.397 0.931 2.328 1.397 3.725 2.328 0.466 0.466 1.397 0.931 2.328 1.397 1.397 0.931 2.328 1.397 3.725 2.328 0.466 0.466 1.397 0.931 1.863 1.397l0.466 0.466c1.397 0.931 2.328 1.863 3.725 2.794 0.931 0.931 1.397 1.397 2.328 1.863 0.931 0.931 2.328 1.863 3.26 2.794 0.466 0.466 0.931 0.931 1.397 1.397l0.466 0.466c0.931 0.931 2.794 2.794 5.122 1.863 30.267-9.779 60.535-13.038 86.611-8.382zM618.329 558.147c0.466 7.916-3.26 22.351-12.573 36.786-15.832 26.542-33.993 56.344-28.405 75.901 2.328 7.45 7.45 13.504 16.298 17.695 3.725 1.863 7.916 2.794 12.573 2.794 37.718 0 96.855-59.603 107.565-156.924 7.45-68.451-2.328-148.077-25.611-209.077-1.397-3.725-4.657-3.725-4.657 0-2.328 68.451-40.977 122.466-43.306 135.504-7.916 44.702-17.695 73.573-21.886 84.283-0.931 2.794-0.466 6.519 0 13.038zM573.627 738.82c13.504-15.832 12.573-40.512 0.466-49.359-12.107-7.916-60.535-3.725-64.725 26.542 0 30.267 50.756 38.649 64.26 22.817zM664.894 367.696c17.229-89.405-18.16-117.81-102.909-101.046-3.26 0.466-3.26 2.794-2.328 3.725 29.336 30.733 45.168 68.451 43.771 104.306-0.931 27.008-9.313 47.496-15.832 62.863-0.931 2.328-1.863 4.191-2.794 6.519l-0.931 1.863c-9.779 23.748-17.229 42.374-1.863 58.206l2.794 3.26c2.328 2.794 4.657 5.122 6.985 7.45 3.725 3.725 8.847 8.847 12.573 13.97 0.931 1.863 1.863 3.26 2.794 4.191 2.328 2.794 6.985 0 7.916-2.794 2.794-7.916 5.588-15.832 8.382-24.214 0-0.466 0.466-1.397 0.466-1.863 1.863-6.519 3.725-13.504 5.588-20.954 2.328-8.382 3.26-15.366 5.588-25.145 2.794-12.107 22.817-54.947 29.802-90.336zM440.916 442.2c43.771 26.542 81.955 52.153 82.42 78.229 0.466 17.229-1.397 32.13-3.26 44.237-2.794 20.954-4.657 34.458 6.519 42.84 2.794 1.863 6.985 3.26 12.107 3.26 16.298 0 43.306-13.97 64.725-52.619 3.725-7.916 4.657-10.71 1.397-15.366-1.397-2.328-27.939-32.13-27.939-32.13-19.092-19.557-10.244-41.443 0-66.588 6.519-15.832 13.97-34.458 15.366-55.412 0.466-5.122 0.466-9.779 0.466-13.97 0-38.183-14.901-74.038-41.909-101.046-0.466-0.931-2.328-1.863-3.725-0.931-16.298 6.985-32.596 16.763-47.496 29.336-45.168 37.252-67.985 89.405-62.863 133.642 0.466 3.725 2.794 5.588 4.191 6.519zM544.756 655.468c0.466-9.779-5.122-16.763-14.901-16.298-10.244 0.931-18.626 9.313-19.092 19.092s5.122 16.763 14.901 15.832c9.779-0.466 18.626-8.847 19.092-18.626zM436.725 528.811c-13.504-2.794-24.679 4.657-25.145 18.626-0.931 14.435 10.244 27.473 24.214 29.802s24.679-4.657 25.145-18.626c0.466-13.97-10.244-27.473-24.214-29.802z" />
<glyph unicode="&#xe962;" glyph-name="social-linkedin" d="M804.571 789.333h-585.295c-26.819 0-48.61-22.095-48.61-49.219v-584.229c0-27.124 21.79-49.219 48.61-49.219h585.295c26.819 0 48.762 22.095 48.762 49.219v584.229c0 27.124-21.943 49.219-48.762 49.219zM376.99 204.19h-101.181v325.79h101.333v-325.79h-0.152zM326.4 574.476c-32.457 0-58.667 26.362-58.667 58.667s26.21 58.667 58.667 58.667c32.305 0 58.667-26.362 58.667-58.667 0-32.457-26.21-58.667-58.667-58.667v0zM756.267 204.19h-101.181v158.476c0 37.79-0.762 86.4-52.571 86.4-52.724 0-60.8-41.143-60.8-83.657v-161.219h-101.181v325.79h97.067v-44.495h1.371c13.562 25.6 46.629 52.571 95.848 52.571 102.4 0 121.448-67.505 121.448-155.276v-178.59z" />
<glyph unicode="&#xe963;" glyph-name="social-paypal" d="M408.383 381.718c-4.791-26.283-23.819-148.799-29.431-183.433-0.411-2.464-1.369-3.422-4.107-3.422h-102.12c-10.404 0-17.933 9.035-16.564 19.028l80.218 509.094c2.053 13.141 13.826 23.134 27.378 23.134 208.484 0 226.005 5.065 279.256-15.605 82.271-31.895 89.8-108.828 60.232-192.057-29.431-85.693-99.245-122.517-191.783-123.612-59.41-0.958-95.139 9.582-103.078-33.127zM744.721 578.702c-2.464 1.78-3.422 2.464-4.107-1.78-2.738-15.605-6.981-30.8-12.046-45.995-54.619-155.781-206.020-142.229-279.94-142.229-8.35 0-13.826-4.517-14.921-12.868-30.937-192.194-37.097-232.302-37.097-232.302-1.369-9.719 4.791-17.659 14.51-17.659h86.925c11.773 0 21.492 8.624 23.819 20.397 0.958 7.392-1.506-8.35 19.712 124.981 6.297 30.116 19.575 26.967 40.109 26.967 97.192 0 173.029 39.424 195.616 153.728 8.898 47.638 6.297 97.739-32.58 126.76z" />
<glyph unicode="&#xe964;" glyph-name="social-skype" d="M817.757 381.302c4.419 21.331 7.161 44.033 7.161 66.735 0 172.933-140.023 312.803-312.803 312.803-22.702 0-45.252-2.59-66.735-7.161-28.949 22.398-64.907 35.653-104.065 35.653-94.161 0-170.648-76.487-170.648-170.648 0-39.158 13.256-75.115 35.501-103.912-4.419-21.331-7.161-44.033-7.161-66.735 0-172.933 140.023-312.803 312.803-312.803 22.702 0 45.252 2.59 66.735 7.161 28.949-22.245 64.907-35.501 103.912-35.501 94.161 0 170.649 76.487 170.649 170.648 0.151 39.005-13.105 74.963-35.35 103.76v0zM521.256 241.889c-99.951 0-183.599 44.49-183.599 99.037 0 24.378 13.713 46.623 44.947 46.623 47.538 0 51.956-68.411 134.233-68.411 39.158 0 64.45 17.37 64.45 40.072 0 28.492-24.378 32.911-63.993 42.662-95.228 23.464-179.485 33.52-179.485 132.861 0 90.2 89.285 123.567 166.229 123.567 83.953 0 168.819-33.368 168.819-84.41 0-25.75-17.37-48.452-46.166-48.452-43.119 0-44.49 51.042-114.273 51.042-39.158 0-63.993-10.665-63.993-34.282 0-30.168 31.692-33.215 105.284-50.28 63.079-14.17 138.194-40.834 138.194-118.235 0-90.047-87-131.795-170.648-131.795v0z" />
<glyph unicode="&#xe965;" glyph-name="social-twitter" d="M780.19 789.333h-536.381c-40.381 0-73.143-32.762-73.143-73.143v-536.381c0-40.381 32.762-73.143 73.143-73.143h536.381c40.381 0 73.143 32.762 73.143 73.143v536.381c0 40.381-32.762 73.143-73.143 73.143zM705.676 547.352c0.305-4.267 0.305-8.686 0.305-12.952 0-132.114-100.571-284.343-284.343-284.343-56.686 0-109.257 16.457-153.448 44.8 8.076-0.914 15.848-1.219 24.076-1.219 46.781 0 89.752 15.848 124.038 42.667-43.886 0.914-80.762 29.714-93.41 69.333 15.39-2.286 29.257-2.286 45.105 1.829-45.714 9.295-80 49.524-80 98.133v1.219c13.257-7.467 28.8-12.038 45.105-12.648-27.842 18.52-44.55 49.761-44.495 83.2 0 18.59 4.876 35.657 13.562 50.438 49.219-60.648 123.124-100.267 206.019-104.533-14.171 67.81 36.571 122.819 97.524 122.819 28.8 0 54.705-12.038 72.99-31.543 22.552 4.267 44.19 12.648 63.39 24.076-7.467-23.162-23.162-42.667-43.886-55.010 20.114 2.133 39.619 7.771 57.6 15.543-13.562-19.962-30.629-37.638-50.133-51.81v0z" />
<glyph unicode="&#xe966;" glyph-name="social-youtube" d="M835.654 629.28c-7.811 29.411-30.825 52.575-60.047 60.436-52.966 14.284-265.351 14.284-265.351 14.284s-212.384 0-265.351-14.284c-29.221-7.862-52.236-31.024-60.047-60.436-14.192-53.31-14.192-164.536-14.192-164.536s0-111.226 14.192-164.536c7.811-29.411 30.825-51.61 60.047-59.471 52.967-14.284 265.351-14.284 265.351-14.284s212.384 0 265.351 14.284c29.221 7.861 52.236 30.059 60.047 59.471 14.192 53.31 14.192 164.536 14.192 164.536s0 111.226-14.192 164.536zM440.795 363.758v201.97l177.512-100.988-177.512-100.983z" />
<glyph unicode="&#xe967;" glyph-name="star-filled" d="M697.206 650.155h275.501c45.605 0 68.444-55.624 36.197-88.156l-233.578-235.636 92.375-279.567c14.422-43.646-30.665-83.094-71.456-62.519l-284.246 143.375-284.246-143.375c-40.791-20.575-85.877 18.873-71.456 62.519l92.375 279.567-233.578 235.636c-32.248 32.532-9.409 88.156 36.197 88.156h275.501l139.421 281.298c18.865 38.062 72.706 38.062 91.571 0l139.421-281.298z" />
<glyph unicode="&#xe968;" glyph-name="star-half" d="M697.206 650.155h275.501c45.605 0 68.444-55.624 36.197-88.156l-233.578-235.636 92.375-279.567c14.422-43.646-30.665-83.094-71.456-62.519l-284.246 143.375-284.246-143.375c-40.791-20.575-85.877 18.873-71.456 62.519l92.375 279.567-233.578 235.636c-32.248 32.532-9.409 88.156 36.197 88.156h275.501l139.421 281.298c18.865 38.062 72.706 38.062 91.571 0l139.421-281.298zM511.897 237.029c7.878 0.016 15.758-1.801 22.995-5.452l196.602-99.167-63.299 191.57c-6.131 18.556-1.344 39.015 12.366 52.846l168.562 170.047h-183.555c-19.389 0-37.114 11.051-45.785 28.546l-107.784 217.467-0.103-0.207v-555.651z" />
<glyph unicode="&#xe969;" glyph-name="star" d="M697.206 650.155h275.501c45.605 0 68.444-55.624 36.197-88.156l-233.578-235.636 92.375-279.567c14.422-43.646-30.665-83.094-71.456-62.519l-284.246 143.375-284.246-143.375c-40.791-20.575-85.877 18.873-71.456 62.519l92.375 279.567-233.578 235.636c-32.248 32.532-9.409 88.156 36.197 88.156h275.501l139.421 281.298c18.865 38.062 72.706 38.062 91.571 0l139.421-281.298zM665.569 546.874c-19.389 0-37.114 11.051-45.785 28.546l-107.784 217.467-107.784-217.467c-8.671-17.495-26.396-28.546-45.785-28.546h-183.555l168.562-170.047c13.71-13.831 18.498-34.289 12.366-52.846l-63.299-191.57 196.602 99.167c14.411 7.269 31.374 7.269 45.785 0l196.602-99.167-63.299 191.57c-6.131 18.556-1.344 39.015 12.366 52.846l168.562 170.047h-183.555z" />
<glyph unicode="&#xe96a;" glyph-name="stock" d="M455.113 158.141v272.384l-341.323 126v-272.384l341.323-126zM568.887 158.141l341.323 126v272.384l-341.323-126v-272.384zM0.015 636.043c-0.021 0.864-0.021 1.73 0 2.598v54.556c0 23.338 14.703 44.229 36.899 52.429l455.097 168.137c12.887 4.761 27.090 4.761 39.977 0l455.097-168.137c22.196-8.2 36.899-29.091 36.899-52.429v-54.556c0.021-0.868 0.021-1.734 0-2.598v-390.709c0-23.343-14.709-44.238-36.913-52.434l-455.097-168c-12.878-4.754-27.070-4.754-39.949 0l-455.097 168c-22.203 8.196-36.913 29.091-36.913 52.434v390.709zM143.226 665.275l368.774-136.134 368.774 136.134-368.774 136.244-368.774-136.244z" />
<glyph unicode="&#xe96b;" glyph-name="table" d="M351.386 498.781c-29.568 0-53.538-24.332-53.538-54.348v-326.086c0-30.015 23.97-54.348 53.538-54.348s53.538 24.332 53.538 54.348v326.086c0 30.015-23.97 54.348-53.538 54.348zM940.304 661.824c-29.568 0-53.538-24.332-53.538-54.348v-326.086c0-30.015 23.97-54.348 53.538-54.348s53.538 24.332 53.538 54.348v326.086c0 30.015-23.97 54.348-53.538 54.348zM83.696 661.824c-29.568 0-53.538-24.332-53.538-54.348v-326.086c0-30.015 23.97-54.348 53.538-54.348s53.538 24.332 53.538 54.348v326.086c0 30.015-23.97 54.348-53.538 54.348zM672.614 553.129c-29.568 0-53.538-24.332-53.538-54.348v-108.695c0-30.015 23.97-54.348 53.538-54.348s53.538 24.332 53.538 54.348v108.695c0 30.015-23.97 54.348-53.538 54.348zM38.837 695.398l610.884 177.178c14.574 4.227 30.23 1.985 43.083-6.17l306.026-194.159c25.074-15.908 32.696-49.438 17.025-74.891-7.020-11.403-17.956-19.758-30.692-23.452l-610.884-177.178c-14.574-4.227-30.23-1.985-43.083 6.17l-306.026 194.159c-25.074 15.908-32.696 49.438-17.025 74.891 7.020 11.403 17.956 19.758 30.692 23.452zM184.009 624.458l183.747-116.579 472.235 136.965-183.747 116.579-472.235-136.965z" />
<glyph unicode="&#xe96c;" glyph-name="target" d="M512-64c-282.77 0-512 229.23-512 512s229.23 512 512 512c282.77 0 512-229.23 512-512s-229.23-512-512-512zM512 38.4c226.216 0 409.6 183.384 409.6 409.6s-183.384 409.6-409.6 409.6c-226.216 0-409.6-183.384-409.6-409.6s183.384-409.6 409.6-409.6zM512 140.8c-169.662 0-307.2 137.538-307.2 307.2s137.538 307.2 307.2 307.2c169.662 0 307.2-137.538 307.2-307.2s-137.538-307.2-307.2-307.2zM512 243.2c113.108 0 204.8 91.692 204.8 204.8s-91.692 204.8-204.8 204.8c-113.108 0-204.8-91.692-204.8-204.8s91.692-204.8 204.8-204.8zM512 345.6c-56.554 0-102.4 45.846-102.4 102.4s45.846 102.4 102.4 102.4c56.554 0 102.4-45.846 102.4-102.4s-45.846-102.4-102.4-102.4z" />
<glyph unicode="&#xe96d;" glyph-name="telephone" d="M981.313 107.499c0.14-36.146-14.986-70.673-41.659-95.096-26.655-24.405-62.371-36.46-99.147-33.136-138.65 15.036-271.836 62.321-388.524 137.845-108.955 69.098-201.333 161.292-270.37 269.724-76.165 117.338-123.565 250.936-138.424 390.635-3.25 35.89 8.763 71.487 33.096 98.090 24.315 26.584 58.693 41.739 94.779 41.774h128.297c50.235 0.49 81.377-59.284 114.33-162.817 30.666-96.35 41.963-164.911 12.766-194.377l-30.832-30.771c50.511-79.104 117.777-146.22 197.058-196.616l31.095 31.033c29.363 28.979 98.297 17.482 194.775-13.434 103.653-33.215 163.473-64.548 162.76-114.951v-127.901zM878.088 234.915c-21.355 11.219-51.94 23.394-85.576 34.173-32.589 10.443-65.541 18.763-91.067 23.020-10.543 1.758-19.356 2.739-25.741 2.941l-46.306-46.214c-13.574-13.547-34.519-16.373-51.198-6.908-114.093 64.747-208.565 159.031-273.446 272.908-9.523 16.714-6.684 37.733 6.932 51.321l46.311 46.219c-0.191 6.34-1.147 15.082-2.87 25.542-4.185 25.397-12.406 58.212-22.752 90.719-10.666 33.512-22.735 64.042-33.869 85.411-3.95 7.583-7.616 13.673-10.685 17.952h-116.719c-12.129-0.011-23.689-5.107-31.852-14.032-8.146-8.907-12.163-20.808-11.142-32.135 13.373-125.683 56.223-246.456 125.283-352.851 62.509-98.177 145.914-181.416 244.624-244.018 105.83-68.495 226.287-111.261 350.923-124.783 12.119-1.093 24.134 2.962 33.089 11.161 8.936 8.181 13.995 19.73 13.946 31.986v116.847c-4.245 3.078-10.313 6.765-17.886 10.743z" />
<glyph unicode="&#xe96e;" glyph-name="text-bold" d="M641.365 484.523c28.217-8.647 49.835-23.097 64.853-43.349s22.528-45.17 22.528-74.752c0-26.397-6.94-49.493-20.821-69.291s-33.678-35.157-59.392-46.080c-25.714-10.923-55.865-16.384-90.453-16.384h-239.616v481.28h232.789c50.518 0 90.681-11.264 120.491-33.792s44.715-52.906 44.715-91.136c0-24.576-6.599-46.307-19.797-65.195s-31.63-32.654-55.296-41.301zM440.661 526.848h89.429c23.666 0 40.96 3.641 51.883 10.923s16.384 18.887 16.384 34.816c0 16.839-5.461 29.127-16.384 36.864s-28.217 11.605-51.883 11.605h-89.429v-94.208zM542.379 329.557c25.031 0 42.894 3.982 53.589 11.947s16.043 21.049 16.043 39.253c0 18.205-5.348 31.289-16.043 39.253s-28.558 11.947-53.589 11.947h-101.717v-102.4h101.717z" />
<glyph unicode="&#xe96f;" glyph-name="text-italic" d="M341.333 192h341.333c23.564 0 42.667 19.103 42.667 42.667s-19.103 42.667-42.667 42.667c-211.846 0-325.624 0-341.333 0-23.564 0-42.667-19.103-42.667-42.667s19.103-42.667 42.667-42.667zM384 661.333h341.333c23.564 0 42.667 19.103 42.667 42.667s-19.103 42.667-42.667 42.667c-211.846 0-325.624 0-341.333 0-23.564 0-42.667-19.103-42.667-42.667s19.103-42.667 42.667-42.667zM469.333 277.364l42.752 383.887 85.156 0.083-42.47-383.969h-85.438z" />
<glyph unicode="&#xe970;" glyph-name="text-underline" d="M341.333 106.667c-23.564 0-42.667 19.103-42.667 42.667s19.103 42.667 42.667 42.667c15.709 0 129.487 0 341.333 0 23.564 0 42.667-19.103 42.667-42.667s-19.103-42.667-42.667-42.667h-341.333zM512 271.872c-64.171 0-112.867 16.611-146.091 49.835s-49.835 82.147-49.835 146.773v290.133h69.632v-294.912c0-44.146 10.581-77.596 31.744-100.352s52.679-34.133 94.549-34.133c41.415 0 72.818 11.378 94.208 34.133s32.085 56.206 32.085 100.352v294.912h69.632v-290.133c0-64.171-16.725-112.981-50.176-146.432s-82.033-50.176-145.749-50.176z" />
<glyph unicode="&#xe971;" glyph-name="totvs-logo" horiz-adv-x="3456" d="M1609.75 624.788h-120.701v-439.8c0-8.335-6.721-15.113-14.908-15.113h-97.613c-8.186 0-14.895 6.779-14.895 15.113v439.8h-121.442c-8.224 0-14.908 6.039-14.908 14.374v77.837c0 8.309 6.684 14.355 14.908 14.355h369.558c8.193 0 15.649-6.045 15.649-14.355v-77.837c0-8.335-7.457-14.374-15.649-14.374zM1875.707 163.054c-122.933 0-220.545 67.252-220.545 242.58v89.941c0 175.347 97.613 242.58 220.545 242.58 122.964 0 220.545-67.233 220.545-242.58v-89.941c0-175.328-97.582-242.58-220.545-242.58zM1968.095 495.574c0 90.68-29.771 129.217-92.388 129.217-62.548 0-91.627-38.536-91.627-129.217v-89.941c0-90.668 29.079-129.198 91.627-129.198 62.617 0 92.388 38.53 92.388 129.198v89.941zM2509.030 624.788h-120.701v-439.8c0-8.335-6.69-15.113-14.908-15.113h-97.613c-8.186 0-14.87 6.779-14.87 15.113v439.8h-121.467c-8.186 0-14.945 6.039-14.945 14.374v77.837c0 8.309 6.759 14.355 14.945 14.355h369.558c8.18 0 15.637-6.045 15.637-14.355v-77.837c0-8.335-7.457-14.374-15.637-14.374zM3032.867 715.48l-111.024-468.503c-17.133-72.582-71.526-83.921-122.964-83.921-51.4 0-106.529 11.338-123.699 83.921l-111.024 468.503c0 1.518-0.729 2.27-0.729 3.794 0 6.792 5.954 12.078 13.405 12.078h103.611c7.413 0 13.368-6.039 14.864-13.602l93.124-436.057c1.534-8.297 3.728-11.3 10.45-11.3s8.947 3.004 10.443 11.3l93.161 436.057c1.459 7.563 6.684 13.602 14.134 13.602h104.303c7.451 0 12.675-4.521 12.675-12.078 0-0.778-0.729-2.276-0.729-3.794zM3242.964 163.054c-58.851 0-102.838 6.817-140.833 16.637-7.451 2.258-14.901 6.817-14.901 15.113v74.068c0 10.56 5.954 14.342 13.405 14.342h2.263c30.507-3.029 112.483-9.055 141.525-9.055 51.438 0 66.308 16.625 66.308 52.891 0 21.93-10.45 34.008-49.137 57.431l-102.838 61.959c-69.3 41.578-87.893 89.175-87.893 144.349 0 83.13 46.138 147.365 190.73 147.365 54.362 0 129.616-9.074 157.929-16.625 5.923-1.505 11.179-5.287 11.179-13.608v-76.326c0-6.804-2.993-12.843-12.675-12.843h-1.459c-20.862 1.505-107.333 8.322-157.966 8.322-42.491 0-58.121-12.856-58.121-40.041 0-21.171 9.676-30.998 49.898-52.91l95.35-52.144c77.524-42.33 100.612-92.198 100.612-153.411 0-80.107-52.13-165.514-203.375-165.514zM504.805 960c278.841 0 504.83-229.256 504.83-512.016 0-282.754-225.988-511.984-504.83-511.984-278.791 0-504.805 229.231-504.805 511.984 0 282.76 226.013 512.016 504.805 512.016zM845.116 258.39c24.914 23.271 24.989 377.279 0 413.431-32.172 27.862-453.049 135.799-485.153 124.449-11.528-10.775-17.701-92.274-18.58-180.349-88.579 21.184-164.943 36.051-177.912 31.498-24.914-23.334-24.914-377.393-0.050-413.406 32.122-27.881 453.074-135.875 485.196-124.499 11.51 10.782 17.719 92.274 18.599 180.337 88.554-21.171 164.918-36.057 177.899-31.46zM648.62 522.931c13.442-19.401 19.615-130.709 18.592-233.082-130.77 31.308-288.162 76.402-307.31 93.039-13.355 19.376-19.521 130.633-18.518 233.031 130.745-31.283 288.056-76.364 307.235-92.989z" />
<glyph unicode="&#xe972;" glyph-name="totvs" d="M511.991 959.983c282.837 0 512-229.205 512-511.915 0-282.752-229.163-511.915-512-511.915-282.752 0-512 229.163-512 511.915 0 282.709 229.248 511.915 512 511.915zM857.165 258.5c25.259 23.253 25.344 377.216 0 413.355-32.64 27.861-459.52 135.808-492.032 124.416-11.733-10.752-18.005-92.245-18.901-180.309-89.813 21.205-167.253 36.053-180.437 31.488-25.301-23.296-25.301-377.344-0.043-413.312 32.597-27.904 459.52-135.893 492.117-124.459 11.691 10.752 17.963 92.245 18.859 180.267 89.771-21.163 167.211-36.011 180.437-31.445zM657.869 522.991c13.611-19.371 19.883-130.645 18.859-233.045-132.651 31.317-292.309 76.373-311.637 93.013-13.611 19.371-19.84 130.645-18.859 233.003 132.651-31.275 292.181-76.331 311.637-92.971z" />
</font>
</defs>
</svg>
